<svg width="20" height="20" viewBox="0 0 20 20" fill="none" xmlns="http://www.w3.org/2000/svg">
<path d="M6.84269 10.5263L4.21093 13.1578L6.84269 15.7894L9.47444 13.1578L6.84269 10.5263ZM13.1589 0C11.432 2.7705e-05 9.76896 0.652973 8.5034 1.82786C7.23783 3.00274 6.46334 4.61267 6.33528 6.3347C5.02877 6.43182 3.77761 6.90195 2.73046 7.68922C1.68331 8.47649 0.884198 9.5478 0.42808 10.7759C-0.0280371 12.0039 -0.121986 13.3371 0.157397 14.617C0.43678 15.8969 1.07775 17.0697 2.00414 17.996C2.93054 18.9223 4.10341 19.5633 5.38339 19.8426C6.66337 20.122 7.99665 20.028 9.22481 19.572C10.453 19.1159 11.5244 18.3168 12.3117 17.2697C13.099 16.2227 13.5692 14.9716 13.6663 13.6652C15.432 13.5335 17.0778 12.7226 18.2581 11.4029C19.4383 10.0832 20.061 8.3574 19.9953 6.5882C19.9296 4.819 19.1806 3.14414 17.9058 1.91557C16.6309 0.687 14.9295 0.000380896 13.1589 0ZM13.4989 11.5673C13.204 10.3379 12.5747 9.21409 11.6807 8.32013C10.7867 7.42617 9.66279 6.79695 8.43332 6.50207C8.49862 5.59658 8.82277 4.72894 9.36717 4.00242C9.91157 3.2759 10.6533 2.72112 11.504 2.40411C12.3548 2.08711 13.2787 2.02123 14.1658 2.21434C15.053 2.40744 15.8659 2.85139 16.5079 3.49332C17.1499 4.13525 17.5939 4.94814 17.787 5.83519C17.9801 6.72225 17.9142 7.64611 17.5972 8.4968C17.2802 9.34749 16.7253 10.0892 15.9988 10.6335C15.2722 11.1779 14.4045 11.502 13.4989 11.5673ZM11.5798 13.1578C11.5798 14.4141 11.0808 15.6189 10.1924 16.5072C9.30398 17.3956 8.09906 17.8946 6.84269 17.8946C5.58631 17.8946 4.3814 17.3956 3.49301 16.5072C2.60462 15.6189 2.10553 14.4141 2.10553 13.1578C2.10553 11.9015 2.60462 10.6967 3.49301 9.80838C4.3814 8.92006 5.58631 8.421 6.84269 8.421C8.09906 8.421 9.30398 8.92006 10.1924 9.80838C11.0808 10.6967 11.5798 11.9015 11.5798 13.1578ZM0.526471 4.73681C0.526471 3.62012 0.970109 2.54916 1.75979 1.75954C2.54947 0.969917 3.62051 0.526313 4.73728 0.526313H6.31634V2.63156H4.73728C4.17889 2.63156 3.64338 2.85337 3.24854 3.24818C2.8537 3.64299 2.63188 4.17847 2.63188 4.73681V6.31575H0.526471V4.73681ZM17.3697 15.2631V13.6841H19.4751V15.2631C19.4751 16.3798 19.0315 17.4507 18.2418 18.2403C17.4521 19.03 16.3811 19.4736 15.2643 19.4736H13.6853V17.3683H15.2643C15.8227 17.3683 16.3582 17.1465 16.7531 16.7517C17.1479 16.3569 17.3697 15.8214 17.3697 15.2631Z" fill="currentColor"/>
</svg>
