<svg width="18" height="18" viewBox="0 0 18 18" fill="none" xmlns="http://www.w3.org/2000/svg">
<path d="M8.40908 1.0607C8.45315 1.09389 8.50601 1.11337 8.56108 1.11671C8.61615 1.12006 8.67099 1.10712 8.71875 1.07951V2.24379C8.71875 2.31838 8.74838 2.38992 8.80113 2.44267C8.85387 2.49541 8.92541 2.52504 9 2.52504C9.07459 2.52504 9.14613 2.49541 9.19887 2.44267C9.25162 2.38992 9.28125 2.31838 9.28125 2.24379V1.07773C9.33716 1.11106 9.40295 1.12387 9.46728 1.11395C9.53162 1.10402 9.59048 1.07198 9.63375 1.02334C9.67701 0.974702 9.70197 0.912504 9.70433 0.847449C9.70669 0.782395 9.6863 0.718552 9.64668 0.666906L9.2248 0.105984C9.19746 0.0728377 9.16313 0.0461472 9.12427 0.0278245C9.0854 0.00950166 9.04297 0 9 0C8.95703 0 8.9146 0.00950166 8.87573 0.0278245C8.83687 0.0461472 8.80254 0.0728377 8.7752 0.105984L8.35332 0.666906C8.33112 0.696421 8.31495 0.730021 8.30573 0.765787C8.29652 0.801553 8.29444 0.838784 8.29962 0.875353C8.3048 0.911921 8.31713 0.947112 8.33591 0.978914C8.35469 1.01072 8.37955 1.03851 8.40908 1.0607ZM4.52239 2.41737C4.57672 2.42627 4.63248 2.41814 4.682 2.39408C4.73153 2.37002 4.77239 2.33122 4.79897 2.283C4.79897 2.283 5.38096 3.2912 5.38138 3.29182C5.41925 3.35581 5.48068 3.40241 5.55251 3.42165C5.62433 3.44089 5.70084 3.43123 5.76562 3.39474C5.83023 3.35745 5.87737 3.29603 5.89668 3.22398C5.916 3.15194 5.9059 3.07517 5.86862 3.01057L5.28663 2.00242C5.35144 2.00234 5.41425 1.97989 5.46442 1.93885C5.51459 1.89782 5.54906 1.84072 5.56199 1.7772C5.57493 1.71369 5.56553 1.64766 5.5354 1.59027C5.50527 1.53288 5.45625 1.48766 5.39662 1.46224L4.75076 1.18738C4.71064 1.17031 4.6671 1.16281 4.62358 1.16545C4.58006 1.1681 4.53775 1.18082 4.49999 1.20263C4.46224 1.22443 4.43006 1.25471 4.40601 1.29108C4.38197 1.32745 4.3667 1.36891 4.36143 1.41219C4.36143 1.41219 4.2767 2.10762 4.27656 2.10893C4.2723 2.14535 4.27528 2.18225 4.28535 2.21751C4.29542 2.25277 4.31237 2.28568 4.33523 2.31435C4.35808 2.34303 4.38638 2.36689 4.41851 2.38457C4.45063 2.40225 4.48593 2.4134 4.52239 2.41737ZM1.46558 5.39343C1.49554 5.46142 1.55087 5.51501 1.61977 5.54278C1.68868 5.57055 1.76571 5.5703 1.83444 5.54209C1.8852 5.5205 1.9285 5.48445 1.95892 5.43843C1.98935 5.39241 2.00557 5.33846 2.00555 5.2833L3.01382 5.86544C3.07874 5.90134 3.15505 5.91067 3.22671 5.89147C3.29837 5.87227 3.35979 5.82605 3.39808 5.7625C3.43536 5.6979 3.44545 5.62113 3.42613 5.54908C3.40682 5.47704 3.35967 5.41562 3.29507 5.37833L2.2868 4.79618C2.34296 4.76376 2.38619 4.71293 2.40917 4.6523C2.43216 4.59167 2.43349 4.52495 2.41294 4.46345C2.39239 4.40195 2.35122 4.34944 2.2964 4.3148C2.24159 4.28016 2.17648 4.26553 2.11212 4.27338L1.41532 4.35825C1.37204 4.36351 1.33057 4.37876 1.2942 4.40281C1.25782 4.42685 1.22754 4.45903 1.20575 4.4968C1.18396 4.53456 1.17125 4.57688 1.16862 4.6204C1.166 4.66392 1.17354 4.70746 1.19064 4.74757C1.19064 4.74757 1.4653 5.39274 1.46558 5.39343ZM2.25 9.27821C2.32459 9.27821 2.39613 9.24858 2.44887 9.19583C2.50162 9.14309 2.53125 9.07155 2.53125 8.99696C2.53125 8.92236 2.50162 8.85083 2.44887 8.79808C2.39613 8.74534 2.32459 8.71571 2.25 8.71571H1.08558C1.11804 8.65957 1.1301 8.59393 1.11972 8.52992C1.10933 8.46591 1.07714 8.40746 1.0286 8.36446C0.980059 8.32146 0.918147 8.29656 0.853351 8.29397C0.788554 8.29139 0.724856 8.31128 0.673044 8.35028L0.112203 8.77222C0.077358 8.79843 0.0490823 8.83237 0.0296095 8.87138C0.0101367 8.91039 0 8.95339 0 8.99699C0 9.04059 0.0101367 9.08359 0.0296095 9.1226C0.0490823 9.16161 0.077358 9.19556 0.112203 9.22176L0.673044 9.64358C0.732939 9.68766 0.807723 9.7065 0.881354 9.69608C0.954985 9.68566 1.0216 9.64679 1.06691 9.58782C1.10005 9.54374 1.11951 9.49089 1.12285 9.43584C1.1262 9.38079 1.11329 9.32598 1.08572 9.27821H2.25ZM3.01396 12.1281L2.00555 12.7104C2.00558 12.6455 1.98319 12.5826 1.94218 12.5324C1.90117 12.4821 1.84406 12.4476 1.78051 12.4346C1.71696 12.4217 1.65088 12.4311 1.59347 12.4612C1.53605 12.4914 1.49082 12.5405 1.46544 12.6001L1.19064 13.2461C1.17361 13.2862 1.16614 13.3297 1.16881 13.3732C1.17148 13.4168 1.18423 13.459 1.20604 13.4968C1.22785 13.5345 1.25813 13.5667 1.2945 13.5907C1.33086 13.6148 1.37231 13.63 1.41559 13.6353C1.62941 13.6614 1.84365 13.6859 2.05733 13.7134C2.09726 13.7241 2.13898 13.7263 2.17981 13.7198C2.22063 13.7134 2.25965 13.6984 2.29434 13.6759C2.32903 13.6535 2.35861 13.624 2.38118 13.5893C2.40375 13.5547 2.41881 13.5157 2.42537 13.4749C2.43205 13.4202 2.42247 13.3647 2.39783 13.3153C2.37319 13.266 2.33458 13.2249 2.2868 13.1974L3.29521 12.6152C3.3598 12.578 3.40694 12.5165 3.42624 12.4445C3.44554 12.3724 3.43543 12.2957 3.39814 12.2311C3.36084 12.1665 3.29941 12.1193 3.22737 12.1C3.15532 12.0807 3.07855 12.0908 3.01396 12.1281ZM5.76577 14.5987C5.73378 14.5802 5.69847 14.5682 5.66184 14.5634C5.62522 14.5585 5.58799 14.561 5.55231 14.5705C5.51662 14.5801 5.48317 14.5966 5.45386 14.6191C5.42456 14.6416 5.39998 14.6696 5.38152 14.7016L4.79923 15.7101C4.76685 15.6539 4.71605 15.6107 4.65543 15.5876C4.5948 15.5646 4.52809 15.5633 4.46658 15.5838C4.40508 15.6044 4.35256 15.6455 4.31793 15.7003C4.2833 15.7552 4.26869 15.8203 4.27656 15.8846L4.36157 16.5814C4.36685 16.6247 4.38213 16.6661 4.40618 16.7025C4.43023 16.7388 4.4624 16.7691 4.50016 16.7909C4.53792 16.8127 4.58022 16.8254 4.62374 16.8281C4.66725 16.8307 4.71078 16.8232 4.7509 16.8061L5.39662 16.5313C5.45625 16.5059 5.50528 16.4606 5.53541 16.4033C5.56555 16.3459 5.57494 16.2798 5.56201 16.2163C5.54907 16.1528 5.5146 16.0957 5.46443 16.0547C5.41425 16.0136 5.35144 15.9912 5.28663 15.9911L5.86876 14.9829C5.90604 14.9183 5.91614 14.8415 5.89682 14.7695C5.87751 14.6974 5.83037 14.636 5.76577 14.5987ZM9.59092 16.9331C9.5468 16.9 9.49394 16.8806 9.43889 16.8773C9.38384 16.8739 9.32903 16.8869 9.28125 16.9144V15.75C9.28125 15.6754 9.25162 15.6039 9.19887 15.5511C9.14613 15.4984 9.07459 15.4687 9 15.4687C8.92541 15.4687 8.85387 15.4984 8.80113 15.5511C8.74838 15.6039 8.71875 15.6754 8.71875 15.75V16.9143C8.6626 16.8819 8.59697 16.8699 8.53297 16.8803C8.46897 16.8907 8.41054 16.9229 8.36756 16.9715C8.32458 17.02 8.2997 17.082 8.29713 17.1467C8.29456 17.2115 8.31445 17.2752 8.35345 17.327L8.77546 17.8879C8.80167 17.9227 8.83562 17.951 8.87463 17.9704C8.91363 17.9899 8.95663 18 9.00022 18C9.04381 18 9.0868 17.9899 9.1258 17.9704C9.1648 17.9509 9.19874 17.9226 9.22494 17.8878L9.64668 17.327C9.66888 17.2974 9.68505 17.2638 9.69426 17.2281C9.70348 17.1923 9.70556 17.155 9.70038 17.1185C9.6952 17.0819 9.68287 17.0467 9.66409 17.0149C9.64531 16.9831 9.62044 16.9553 9.59092 16.9331ZM13.4783 15.5714C13.4235 15.5648 13.3681 15.5745 13.3187 15.5991C13.2694 15.6238 13.2284 15.6624 13.2008 15.7101L12.6185 14.7016C12.5812 14.637 12.5197 14.5899 12.4477 14.5705C12.3756 14.5512 12.2988 14.5613 12.2342 14.5986C12.1696 14.6359 12.1225 14.6974 12.1032 14.7694C12.0838 14.8415 12.0939 14.9183 12.1312 14.9829L12.7134 15.9911C12.6485 15.9912 12.5857 16.0136 12.5355 16.0546C12.4853 16.0956 12.4508 16.1528 12.4379 16.2163C12.4249 16.2798 12.4343 16.3459 12.4645 16.4033C12.4946 16.4607 12.5437 16.5059 12.6034 16.5313L13.2492 16.8061C13.2894 16.8231 13.3329 16.8306 13.3764 16.828C13.4199 16.8253 13.4622 16.8126 13.5 16.7908C13.5378 16.769 13.5699 16.7387 13.594 16.7024C13.618 16.666 13.6333 16.6245 13.6386 16.5812L13.7234 15.8846C13.7324 15.8105 13.7117 15.736 13.6657 15.6772C13.6197 15.6185 13.5523 15.5804 13.4783 15.5714ZM16.5344 12.6001C16.509 12.5404 16.4638 12.4913 16.4064 12.4612C16.349 12.4311 16.2829 12.4217 16.2194 12.4347C16.1559 12.4476 16.0988 12.4822 16.0578 12.5324C16.0168 12.5826 15.9944 12.6455 15.9944 12.7104L14.986 12.1281C14.9541 12.1097 14.9187 12.0977 14.8821 12.0929C14.8455 12.088 14.8083 12.0905 14.7726 12.1C14.737 12.1096 14.7035 12.1261 14.6742 12.1486C14.6449 12.171 14.6203 12.1991 14.6019 12.2311C14.5834 12.263 14.5714 12.2984 14.5666 12.335C14.5618 12.3716 14.5642 12.4088 14.5738 12.4445C14.5833 12.4801 14.5998 12.5136 14.6223 12.5429C14.6448 12.5722 14.6728 12.5968 14.7048 12.6152L15.7131 13.1974C15.6595 13.2283 15.6176 13.2761 15.594 13.3333C15.5703 13.3904 15.5661 13.4538 15.5821 13.5136C15.5981 13.5733 15.6333 13.6262 15.6824 13.6639C15.7314 13.7016 15.7915 13.7221 15.8534 13.7222C15.8648 13.7222 16.5847 13.6352 16.5847 13.6352C16.628 13.6299 16.6694 13.6147 16.7058 13.5906C16.7422 13.5666 16.7725 13.5344 16.7942 13.4966C16.816 13.4589 16.8288 13.4166 16.8314 13.373C16.834 13.3295 16.8265 13.286 16.8094 13.2459L16.5344 12.6001ZM17.8878 8.77194L17.3268 8.35021C17.275 8.31125 17.2113 8.2914 17.1465 8.29401C17.0817 8.29661 17.0198 8.32151 16.9713 8.3645C16.9227 8.40749 16.8905 8.46593 16.8801 8.52992C16.8697 8.59392 16.8817 8.65955 16.9141 8.71571H15.75C15.6754 8.71571 15.6039 8.74534 15.5511 8.79808C15.4984 8.85083 15.4688 8.92236 15.4688 8.99696C15.4688 9.07155 15.4984 9.14309 15.5511 9.19583C15.6039 9.24858 15.6754 9.27821 15.75 9.27821H16.9141C16.8866 9.32598 16.8737 9.38079 16.877 9.43584C16.8804 9.49089 16.8998 9.54374 16.9329 9.58782C16.9783 9.64677 17.0449 9.68561 17.1185 9.69602C17.1921 9.70643 17.2669 9.68758 17.3268 9.64351L17.8878 9.22149C17.9226 9.19529 17.9509 9.16134 17.9704 9.12233C17.9899 9.08332 18 9.04032 18 8.99672C18 8.95312 17.9899 8.91011 17.9704 8.8711C17.9509 8.83209 17.9226 8.79815 17.8878 8.77194ZM14.8457 5.90162C14.8949 5.90251 14.9434 5.89002 14.986 5.8655L15.9944 5.2833C15.9944 5.33846 16.0106 5.39241 16.0411 5.43843C16.0715 5.48445 16.1148 5.5205 16.1656 5.54209C16.2343 5.5704 16.3113 5.5707 16.3803 5.54291C16.4492 5.51513 16.5045 5.46148 16.5344 5.39343L16.8094 4.74737C16.8264 4.70725 16.8339 4.66371 16.8313 4.62019C16.8287 4.57666 16.8159 4.53435 16.7941 4.49659C16.7723 4.45883 16.7421 4.42665 16.7057 4.40261C16.6693 4.37856 16.6278 4.3633 16.5846 4.35804L15.8877 4.27338C15.8234 4.26556 15.7583 4.28021 15.7035 4.31485C15.6487 4.3495 15.6076 4.402 15.587 4.46349C15.5665 4.52498 15.5679 4.59168 15.5908 4.65229C15.6138 4.7129 15.6571 4.76371 15.7132 4.79613C15.7132 4.79613 14.7066 5.37737 14.7048 5.3784C14.6525 5.41004 14.6118 5.45784 14.589 5.51459C14.5662 5.57134 14.5625 5.63396 14.5784 5.69301C14.5943 5.75207 14.629 5.80435 14.6772 5.84198C14.7254 5.87961 14.7845 5.90054 14.8457 5.90162ZM12.2342 3.39495C12.299 3.43158 12.3755 3.44131 12.4474 3.42206C12.5193 3.40282 12.5807 3.35612 12.6185 3.29203L13.201 2.283C13.2333 2.33926 13.284 2.38263 13.3446 2.40574C13.4052 2.42885 13.4719 2.43027 13.5335 2.40977C13.595 2.38927 13.6475 2.3481 13.6822 2.29327C13.7168 2.23843 13.7314 2.1733 13.7234 2.10893L13.6386 1.41198C13.6333 1.3687 13.618 1.32723 13.594 1.29086C13.5699 1.2545 13.5378 1.22422 13.5 1.20242C13.4622 1.18062 13.4199 1.1679 13.3764 1.16527C13.3329 1.16264 13.2894 1.17016 13.2492 1.18724L12.6034 1.46231C12.5437 1.48769 12.4947 1.5329 12.4645 1.59029C12.4344 1.64768 12.425 1.71373 12.438 1.77724C12.4509 1.84076 12.4854 1.89785 12.5356 1.93884C12.5859 1.97984 12.6487 2.00223 12.7135 2.00223L12.1312 3.01078C12.094 3.07538 12.0839 3.15215 12.1032 3.22419C12.1225 3.29624 12.1696 3.35766 12.2342 3.39495ZM9 13.2156C9.04873 13.2157 9.09663 13.203 9.13898 13.1789L12.6546 11.1797C12.6978 11.1552 12.7337 11.1196 12.7587 11.0767C12.7837 11.0337 12.7969 10.9849 12.7969 10.9352V6.93722C12.7969 6.88627 12.7831 6.83628 12.7569 6.79258C12.7307 6.74889 12.6931 6.71313 12.6481 6.68914L9.13252 4.8113C9.09174 4.78952 9.04623 4.77813 9 4.77813C8.95377 4.77813 8.90825 4.78952 8.86747 4.8113L5.35185 6.68914C5.30691 6.71314 5.26933 6.74889 5.24314 6.79259C5.21694 6.83628 5.20311 6.88627 5.20312 6.93722V10.9352C5.20312 10.9849 5.21628 11.0337 5.24127 11.0767C5.26626 11.1196 5.30219 11.1552 5.34539 11.1797L8.86102 13.1789C8.90337 13.203 8.95127 13.2157 9 13.2156ZM12.2344 10.7716L9.28125 12.4509V9.10229L12.2344 7.47411V10.7716ZM9 5.37826L11.9818 6.97101L9.00014 8.61512L6.01817 6.97101L9 5.37826ZM8.71875 12.4509L5.76562 10.7716V7.47411L8.71875 9.10243V12.4509ZM5.58298 5.07298C5.61662 5.04351 5.65072 5.01454 5.68528 4.98604C5.71385 4.96258 5.73752 4.93372 5.75492 4.90111C5.77232 4.86849 5.78313 4.83277 5.78671 4.79597C5.79029 4.75918 5.78659 4.72204 5.77581 4.68668C5.76502 4.65132 5.74737 4.61844 5.72387 4.58991C5.70036 4.56137 5.67147 4.53776 5.63882 4.5204C5.60618 4.50305 5.57044 4.49231 5.53364 4.48878C5.49684 4.48525 5.45971 4.48902 5.42437 4.49986C5.38903 4.51069 5.35617 4.5284 5.32767 4.55194C5.28896 4.58388 5.25073 4.61631 5.21301 4.64924C5.18518 4.67353 5.16242 4.70306 5.146 4.73615C5.12959 4.76923 5.11986 4.80523 5.11736 4.84208C5.11486 4.87893 5.11964 4.91591 5.13144 4.95091C5.14323 4.98591 5.1618 5.01824 5.18609 5.04606C5.23559 5.10156 5.30485 5.13546 5.37905 5.14049C5.45324 5.14553 5.52645 5.12129 5.58298 5.07298ZM3.97266 10.3429C3.9632 10.3071 3.9468 10.2736 3.92438 10.2442C3.90196 10.2148 3.87397 10.1901 3.842 10.1716C3.81003 10.153 3.77472 10.1409 3.73808 10.136C3.70145 10.1311 3.6642 10.1335 3.62848 10.143C3.59276 10.1525 3.55926 10.169 3.5299 10.1914C3.50055 10.2139 3.4759 10.2419 3.45739 10.2739C3.43887 10.3059 3.42684 10.3412 3.42199 10.3779C3.41714 10.4145 3.41956 10.4518 3.42911 10.4875C3.44202 10.5359 3.45553 10.5842 3.46963 10.6321C3.48804 10.6941 3.52728 10.7479 3.58072 10.7845C3.63417 10.821 3.69856 10.838 3.76307 10.8326C3.82757 10.8272 3.88824 10.7997 3.93487 10.7548C3.9815 10.7099 4.01123 10.6503 4.01908 10.5861C4.02262 10.5479 4.01922 10.5093 4.00905 10.4724C3.99628 10.4294 3.98415 10.3863 3.97266 10.3429ZM14.3428 10.2714C14.2712 10.2506 14.1943 10.259 14.1289 10.2948C14.0635 10.3307 14.015 10.3909 13.994 10.4625C13.9815 10.5053 13.9684 10.5479 13.9547 10.5902C13.9432 10.6253 13.9388 10.6623 13.9417 10.6991C13.9445 10.736 13.9546 10.7719 13.9713 10.8048C13.9881 10.8377 14.0111 10.867 14.0392 10.891C14.0672 10.9151 14.0998 10.9333 14.1349 10.9448C14.17 10.9562 14.207 10.9606 14.2438 10.9578C14.2807 10.9549 14.3166 10.9448 14.3495 10.9281C14.3824 10.9114 14.4117 10.8883 14.4357 10.8603C14.4597 10.8322 14.478 10.7997 14.4894 10.7646C14.5051 10.7168 14.5198 10.6686 14.5339 10.6203C14.5549 10.5487 14.5465 10.4717 14.5106 10.4062C14.4748 10.3408 14.4144 10.2923 14.3428 10.2714ZM6.84448 13.7341C6.80356 13.7155 6.76287 13.6963 6.72239 13.6765C6.68921 13.6603 6.65316 13.6508 6.6163 13.6485C6.57944 13.6462 6.54249 13.6512 6.50756 13.6632C6.47263 13.6752 6.44041 13.694 6.41274 13.7185C6.38506 13.7429 6.36247 13.7726 6.34626 13.8058C6.33004 13.8389 6.32053 13.875 6.31825 13.9119C6.31597 13.9487 6.32097 13.9857 6.33297 14.0206C6.34497 14.0555 6.36373 14.0877 6.38818 14.1154C6.41264 14.1431 6.4423 14.1657 6.47548 14.1819C6.52039 14.2039 6.56566 14.2252 6.6113 14.246C6.64492 14.2614 6.68125 14.27 6.71821 14.2713C6.75517 14.2727 6.79203 14.2667 6.82668 14.2538C6.86134 14.2409 6.8931 14.2213 6.92016 14.1961C6.94722 14.1709 6.96904 14.1406 6.98437 14.1069C6.9997 14.0732 7.00825 14.0369 7.00951 13.9999C7.01078 13.963 7.00474 13.9261 6.99175 13.8915C6.97876 13.8569 6.95906 13.8252 6.93379 13.7981C6.90852 13.7711 6.87817 13.7494 6.84448 13.7341ZM12.485 13.5113C12.599 13.4967 12.7034 13.4401 12.7778 13.3525C12.8059 13.3284 12.8289 13.2989 12.8456 13.2658C12.8623 13.2327 12.8723 13.1967 12.875 13.1597C12.8777 13.1228 12.8731 13.0857 12.8614 13.0505C12.8498 13.0154 12.8312 12.9829 12.807 12.9549C12.7827 12.9269 12.7531 12.904 12.72 12.8874C12.6868 12.8709 12.6507 12.8611 12.6138 12.8586C12.5768 12.856 12.5397 12.8608 12.5046 12.8727C12.4695 12.8845 12.4371 12.9032 12.4092 12.9276C12.3751 12.9572 12.3405 12.9863 12.3059 13.015C12.261 13.0516 12.2286 13.1012 12.2131 13.1571C12.1976 13.2129 12.1998 13.2721 12.2195 13.3266C12.2392 13.3811 12.2753 13.4282 12.3228 13.4612C12.3704 13.4943 12.4271 13.5118 12.485 13.5113ZM4.54299 12.206C4.57401 12.186 4.60079 12.16 4.62178 12.1296C4.64277 12.0992 4.65757 12.065 4.66534 12.0289C4.67311 11.9928 4.67368 11.9555 4.66704 11.9192C4.6604 11.8828 4.64666 11.8482 4.62662 11.8172C4.6023 11.7793 4.57836 11.7412 4.55479 11.7028C4.51589 11.6391 4.4533 11.5936 4.3808 11.5761C4.30831 11.5586 4.23183 11.5706 4.1682 11.6095C4.10457 11.6484 4.059 11.711 4.04152 11.7835C4.02403 11.856 4.03606 11.9325 4.07496 11.9961C4.10078 12.0385 4.12719 12.0806 4.1542 12.1223C4.1952 12.1843 4.25885 12.2278 4.33153 12.2434C4.4042 12.2591 4.48011 12.2456 4.54299 12.206ZM14.2031 8.97437C14.2031 8.97437 14.2026 9.08704 14.2015 9.13189C14.2005 9.1688 14.2068 9.20555 14.2201 9.24002C14.2333 9.2745 14.2532 9.30603 14.2786 9.33281C14.304 9.3596 14.3345 9.38112 14.3682 9.39613C14.402 9.41115 14.4383 9.41938 14.4752 9.42034C14.5122 9.42131 14.5489 9.41499 14.5834 9.40176C14.6179 9.38852 14.6494 9.36863 14.6762 9.34321C14.703 9.31778 14.7245 9.28734 14.7395 9.2536C14.7545 9.21986 14.7627 9.1835 14.7637 9.14658C14.7649 9.0968 14.7656 8.97437 14.7656 8.97437C14.7656 8.89978 14.736 8.82824 14.6832 8.7755C14.6305 8.72275 14.559 8.69312 14.4844 8.69312C14.4098 8.69312 14.3382 8.72275 14.2855 8.7755C14.2328 8.82824 14.2031 8.89978 14.2031 8.97437ZM5.11895 13.2607C5.15575 13.2941 5.19287 13.3271 5.23032 13.3596C5.28672 13.4083 5.36014 13.4326 5.43446 13.4272C5.50878 13.4218 5.57793 13.3872 5.62672 13.3308C5.67551 13.2745 5.69995 13.2011 5.69469 13.1268C5.68942 13.0525 5.65487 12.9833 5.59863 12.9344C5.56443 12.9048 5.5306 12.8748 5.49714 12.8443C5.46983 12.8193 5.43785 12.8 5.40304 12.7874C5.36824 12.7748 5.33128 12.7692 5.29431 12.7709C5.25733 12.7726 5.22105 12.7816 5.18756 12.7974C5.15406 12.8131 5.12401 12.8353 5.09912 12.8627C5.07423 12.8901 5.055 12.9222 5.04252 12.957C5.03004 12.9919 5.02457 13.0289 5.02641 13.0658C5.02825 13.1028 5.03737 13.139 5.05325 13.1725C5.06913 13.2059 5.09146 13.2359 5.11895 13.2607ZM13.45 5.77884C13.419 5.79898 13.3924 5.82502 13.3715 5.85548C13.3506 5.88593 13.3359 5.92021 13.3282 5.95634C13.3206 5.99248 13.3201 6.02976 13.3269 6.06607C13.3336 6.10238 13.3475 6.13701 13.3676 6.16797C13.3921 6.20539 13.416 6.2432 13.4393 6.28141C13.4787 6.34443 13.5413 6.3895 13.6136 6.40694C13.6858 6.42438 13.762 6.41281 13.8259 6.37472C13.8574 6.35545 13.8848 6.33017 13.9065 6.30031C13.9283 6.27045 13.9439 6.23661 13.9526 6.2007C13.9612 6.1648 13.9627 6.12754 13.957 6.09106C13.9513 6.05457 13.9384 6.01958 13.9191 5.98807C13.893 5.94536 13.8664 5.90306 13.8392 5.86118C13.8191 5.83021 13.793 5.80351 13.7626 5.78261C13.7321 5.76171 13.6978 5.74701 13.6617 5.73937C13.6255 5.73172 13.5882 5.73127 13.5519 5.73805C13.5156 5.74482 13.481 5.75868 13.45 5.77884ZM14.025 7.64151C14.0454 7.71295 14.093 7.77358 14.1575 7.81048C14.222 7.84738 14.2983 7.85764 14.3703 7.83906C14.4059 7.82937 14.4393 7.81275 14.4685 7.79015C14.4977 7.76756 14.5222 7.73943 14.5405 7.70738C14.5588 7.67532 14.5707 7.63997 14.5754 7.60334C14.58 7.56671 14.5774 7.52951 14.5677 7.49388C14.5547 7.44589 14.5412 7.39819 14.5272 7.3508C14.506 7.27935 14.4572 7.21927 14.3917 7.18374C14.3261 7.14822 14.2492 7.14017 14.1777 7.16135C14.1062 7.18253 14.0461 7.23121 14.0105 7.2967C13.9749 7.3622 13.9667 7.43914 13.9878 7.51065C14.0007 7.55404 14.0131 7.59766 14.025 7.64151ZM11.1459 4.25538C11.1867 4.27386 11.2273 4.29287 11.2674 4.31245C11.3345 4.34519 11.4117 4.34997 11.4823 4.32574C11.5528 4.3015 11.6108 4.25024 11.6436 4.18322C11.6763 4.11621 11.6811 4.03893 11.6569 3.96839C11.6326 3.89785 11.5814 3.83982 11.5144 3.80708C11.4693 3.78503 11.4238 3.76363 11.3777 3.74287C11.344 3.72743 11.3076 3.7188 11.2706 3.71748C11.2336 3.71615 11.1966 3.72215 11.1619 3.73514C11.1272 3.74813 11.0955 3.76785 11.0684 3.79316C11.0413 3.81847 11.0195 3.84888 11.0043 3.88264C10.989 3.9164 10.9806 3.95285 10.9794 3.98988C10.9783 4.02692 10.9845 4.06381 10.9976 4.09845C11.0108 4.13308 11.0307 4.16478 11.0561 4.19171C11.0816 4.21864 11.1121 4.24028 11.1459 4.25538ZM3.6542 7.73333C3.7258 7.75356 3.80249 7.74486 3.86773 7.70909C3.93298 7.67332 3.98156 7.61334 4.003 7.54209C4.01564 7.49876 4.02883 7.45567 4.04256 7.4128C4.0538 7.37761 4.05801 7.34056 4.05493 7.30375C4.05186 7.26694 4.04156 7.23109 4.02463 7.19826C4.0077 7.16543 3.98447 7.13625 3.95627 7.1124C3.92806 7.08855 3.89544 7.07048 3.86025 7.05924C3.82507 7.04799 3.78801 7.04379 3.7512 7.04687C3.71439 7.04994 3.67855 7.06024 3.64572 7.07717C3.61289 7.0941 3.58371 7.11733 3.55986 7.14553C3.536 7.17373 3.51794 7.20636 3.50669 7.24154C3.49159 7.28892 3.47704 7.3366 3.46303 7.38457C3.44214 7.45617 3.45054 7.53314 3.48639 7.59854C3.52224 7.66394 3.5826 7.71243 3.6542 7.73333ZM11.1651 13.7295C11.1245 13.7481 11.0836 13.7662 11.0425 13.7838C10.9739 13.813 10.9197 13.8683 10.8918 13.9375C10.8639 14.0067 10.8647 14.0841 10.8939 14.1528C10.9239 14.2208 10.9792 14.2744 11.0481 14.3021C11.117 14.3299 11.1941 14.3296 11.2628 14.3014C11.3088 14.2818 11.3544 14.2616 11.3997 14.2408C11.4333 14.2254 11.4635 14.2036 11.4887 14.1765C11.5139 14.1494 11.5334 14.1177 11.5463 14.083C11.5592 14.0484 11.5651 14.0115 11.5637 13.9746C11.5623 13.9377 11.5537 13.9014 11.5383 13.8678C11.5229 13.8342 11.501 13.804 11.4739 13.7788C11.4468 13.7537 11.415 13.7342 11.3804 13.7213C11.3457 13.7085 11.3089 13.7026 11.2719 13.704C11.235 13.7054 11.1987 13.7141 11.1651 13.7295ZM4.22658 6.27934C4.28956 6.31896 4.36557 6.33226 4.43825 6.31638C4.51094 6.30051 4.57448 6.25674 4.61521 6.19448C4.63953 6.15651 4.6643 6.11892 4.68952 6.08172C4.73144 6.02002 4.74713 5.9442 4.73315 5.87093C4.71916 5.79766 4.67664 5.73294 4.61495 5.69102C4.55325 5.6491 4.47742 5.63341 4.40415 5.64739C4.33088 5.66138 4.26617 5.7039 4.22425 5.7656C4.19622 5.80687 4.1687 5.84857 4.1417 5.8907C4.10142 5.95349 4.08774 6.02972 4.10366 6.1026C4.11957 6.17548 4.16379 6.23906 4.22658 6.27934ZM3.517 8.58463C3.44351 8.58466 3.37295 8.61346 3.32043 8.66487C3.26791 8.71628 3.23761 8.78622 3.23602 8.85969C3.23492 8.9053 3.23438 9.00822 3.23438 9.00822C3.23449 9.04486 3.24188 9.0811 3.25613 9.11486C3.27037 9.14861 3.29119 9.1792 3.31736 9.20484C3.34352 9.23047 3.37453 9.25066 3.40857 9.26421C3.4426 9.27776 3.47899 9.28441 3.51562 9.28378C3.59079 9.28249 3.66244 9.25168 3.71507 9.19799C3.7677 9.14431 3.79708 9.07207 3.79688 8.99689C3.79688 8.95515 3.79838 8.91354 3.79838 8.87205C3.80093 8.83417 3.79544 8.79617 3.78229 8.76055C3.76913 8.72493 3.7486 8.69249 3.72203 8.66535C3.69547 8.63822 3.66347 8.617 3.62814 8.60309C3.59281 8.58918 3.55493 8.58289 3.517 8.58463ZM12.8725 4.72532C12.8356 4.69183 12.7983 4.65882 12.7605 4.62631C12.7039 4.57772 12.6304 4.55357 12.5561 4.55917C12.4818 4.56476 12.4127 4.59964 12.3641 4.65613C12.3154 4.71263 12.2912 4.78612 12.2967 4.86046C12.3023 4.9348 12.3371 5.0039 12.3935 5.05258C12.4277 5.08205 12.4615 5.11189 12.4949 5.14212C12.5222 5.16692 12.5542 5.18608 12.589 5.19852C12.6238 5.21096 12.6607 5.21642 12.6975 5.21461C12.7344 5.21279 12.7706 5.20373 12.804 5.18793C12.8374 5.17214 12.8673 5.14992 12.8921 5.12255C12.9169 5.09519 12.9361 5.0632 12.9485 5.02843C12.9609 4.99365 12.9664 4.95677 12.9646 4.91989C12.9628 4.883 12.9537 4.84683 12.9379 4.81345C12.9221 4.78007 12.8999 4.75012 12.8725 4.72532ZM9.74624 14.147C9.70175 14.1533 9.65698 14.1591 9.61221 14.1644C9.541 14.1728 9.47567 14.208 9.42959 14.263C9.38351 14.3179 9.36015 14.3884 9.36429 14.4599C9.36843 14.5315 9.39975 14.5988 9.45186 14.6481C9.50397 14.6974 9.57292 14.7248 9.64462 14.725C9.70556 14.7221 9.76623 14.715 9.82617 14.7037C9.86277 14.6985 9.89798 14.6861 9.92979 14.6673C9.9616 14.6485 9.98939 14.6236 10.0116 14.594C10.0337 14.5644 10.0499 14.5308 10.059 14.495C10.0682 14.4592 10.0702 14.4219 10.0649 14.3853C10.0597 14.3487 10.0473 14.3135 10.0284 14.2817C10.0096 14.2499 9.98461 14.2222 9.955 14.2001C9.9254 14.1779 9.89173 14.1618 9.85591 14.1527C9.82009 14.1436 9.78282 14.1416 9.74624 14.147ZM9.48395 3.52651C9.47373 3.60039 9.49328 3.67532 9.5383 3.73479C9.58331 3.79427 9.65011 3.83343 9.72399 3.84367C9.76863 3.84986 9.88838 3.86784 9.90363 3.86784C9.97418 3.86775 10.0421 3.84114 10.094 3.7933C10.1458 3.74545 10.1778 3.67987 10.1836 3.60955C10.1894 3.53923 10.1685 3.46931 10.1252 3.41365C10.0818 3.35799 10.0191 3.32066 9.9495 3.30906C9.90032 3.30087 9.85075 3.29339 9.80118 3.28653C9.72731 3.27638 9.65242 3.29595 9.59295 3.34094C9.53348 3.38592 9.49428 3.45266 9.48395 3.52651ZM6.70743 4.29363C6.79229 4.2838 6.87423 4.25664 6.94817 4.21384C6.9822 4.19931 7.01303 4.1782 7.0389 4.15173C7.06476 4.12526 7.08514 4.09394 7.09888 4.05958C7.11262 4.02522 7.11944 3.98848 7.11895 3.95148C7.11846 3.91447 7.11068 3.87793 7.09604 3.84394C7.0814 3.80995 7.0602 3.77918 7.03365 3.7534C7.0071 3.72762 6.97572 3.70733 6.94132 3.6937C6.90691 3.68007 6.87015 3.67337 6.83315 3.67397C6.79615 3.67457 6.75963 3.68247 6.72568 3.69721C6.67997 3.71691 6.63456 3.73714 6.58946 3.7579C6.52175 3.78918 6.46923 3.84605 6.44342 3.91603C6.41762 3.98601 6.42066 4.06337 6.45186 4.13111C6.47485 4.17951 6.51102 4.22043 6.55624 4.24918C6.60145 4.27793 6.65385 4.29334 6.70743 4.29363ZM8.50452 14.4665C8.51495 14.3926 8.49562 14.3176 8.45078 14.258C8.40595 14.1984 8.33928 14.1591 8.26543 14.1486C8.22052 14.1423 8.17588 14.1354 8.13153 14.1279C8.05794 14.1157 7.9825 14.1332 7.92181 14.1766C7.86112 14.22 7.82015 14.2857 7.80791 14.3593C7.79568 14.4329 7.81318 14.5083 7.85656 14.569C7.89994 14.6297 7.96566 14.6706 8.03925 14.6829C8.08827 14.691 8.21324 14.7084 8.22642 14.7084C8.29413 14.7083 8.35952 14.6837 8.4106 14.6393C8.46168 14.5949 8.49502 14.5335 8.50452 14.4665ZM8.20212 3.85136C8.21558 3.85136 8.33203 3.83598 8.3768 3.83062C8.41353 3.82633 8.44906 3.81483 8.48134 3.79679C8.51362 3.77875 8.54202 3.75452 8.56493 3.72549C8.58783 3.69646 8.60479 3.66319 8.61482 3.6276C8.62485 3.592 8.62777 3.55478 8.6234 3.51806C8.61903 3.48134 8.60746 3.44584 8.58935 3.4136C8.57124 3.38136 8.54696 3.353 8.51788 3.33015C8.4888 3.30731 8.4555 3.29042 8.41988 3.28046C8.38427 3.27051 8.34704 3.26767 8.31033 3.27211C8.26062 3.27801 8.21123 3.28453 8.16216 3.29167C8.09183 3.30188 8.02797 3.33833 7.98342 3.39368C7.93886 3.44904 7.91691 3.51921 7.92197 3.5901C7.92703 3.66098 7.95873 3.72732 8.0107 3.77579C8.06267 3.82425 8.13106 3.85125 8.20212 3.85136ZM13.7675 11.724C13.7047 11.6837 13.6286 11.67 13.5557 11.6858C13.4828 11.7017 13.4192 11.7458 13.3789 11.8086C13.3546 11.8463 13.3298 11.8837 13.3046 11.9208C13.2837 11.9513 13.269 11.9856 13.2614 12.0218C13.2537 12.0579 13.2533 12.0953 13.2601 12.1316C13.2669 12.1679 13.2808 12.2026 13.3011 12.2335C13.3213 12.2645 13.3474 12.2912 13.3779 12.312C13.4084 12.3329 13.4428 12.3475 13.479 12.3551C13.5152 12.3626 13.5525 12.363 13.5888 12.3561C13.6251 12.3492 13.6598 12.3353 13.6907 12.315C13.7216 12.2947 13.7482 12.2686 13.769 12.238C13.7973 12.1967 13.825 12.1549 13.8521 12.1126C13.8924 12.0499 13.9062 11.9737 13.8903 11.9008C13.8744 11.8279 13.8303 11.7643 13.7675 11.724Z" fill="currentColor"/>
</svg>
