<svg width="42" height="42" viewBox="0 0 42 42" fill="none" xmlns="http://www.w3.org/2000/svg">
<circle cx="21.1275" cy="21.305" r="20.5638" fill="#0080FF"/>
<path fill-rule="evenodd" clip-rule="evenodd" d="M13.9304 12.0513C12.7947 12.0513 11.874 12.972 11.874 14.1076V28.5023C11.874 29.638 12.7947 30.5587 13.9304 30.5587H28.325C29.4607 30.5587 30.3814 29.638 30.3814 28.5023V14.1076C30.3814 12.972 29.4607 12.0513 28.325 12.0513H13.9304ZM17.015 22.3332C17.015 21.7653 16.5546 21.305 15.9868 21.305C15.4189 21.305 14.9586 21.7653 14.9586 22.3332V26.4459C14.9586 27.0138 15.4189 27.4741 15.9868 27.4741C16.5546 27.4741 17.015 27.0138 17.015 26.4459V22.3332ZM21.1277 18.2204C21.6956 18.2204 22.1559 18.6807 22.1559 19.2486V26.4459C22.1559 27.0138 21.6956 27.4741 21.1277 27.4741C20.5599 27.4741 20.0995 27.0138 20.0995 26.4459V19.2486C20.0995 18.6807 20.5599 18.2204 21.1277 18.2204ZM27.2969 16.164C27.2969 15.5961 26.8365 15.1358 26.2687 15.1358C25.7008 15.1358 25.2405 15.5961 25.2405 16.164V26.4459C25.2405 27.0138 25.7008 27.4741 26.2687 27.4741C26.8365 27.4741 27.2969 27.0138 27.2969 26.4459V16.164Z" fill="white"/>
</svg>
