<svg width="42" height="42" viewBox="0 0 42 42" fill="none" xmlns="http://www.w3.org/2000/svg">
<circle cx="20.5638" cy="20.5638" r="20.5638" fill="#3CD856"/>
<path d="M19.0852 22.0676H17.4073C17.2152 22.0407 17.0389 21.9469 16.9092 21.8027C16.7644 21.6437 16.7732 21.0714 16.9234 20.7659C16.964 20.6846 17.0064 20.6051 17.0505 20.5257C17.4243 19.8901 17.6133 19.1628 17.5963 18.4256C17.6122 17.4966 17.2748 16.8695 16.6973 16.7494C16.592 16.7243 16.4827 16.7214 16.3763 16.7409C16.2698 16.7603 16.1686 16.8017 16.0791 16.8625C15.7258 17.1115 15.6393 17.622 15.5916 17.9222C15.5916 17.9629 15.5792 17.9999 15.5739 18.0317C15.4273 18.8018 14.8427 19.7591 14.3623 20.3278C14.327 20.3702 14.2493 20.4427 14.1857 20.5045C14.0835 20.5946 13.9878 20.692 13.8995 20.7959C13.7809 20.9653 13.6735 21.1423 13.5781 21.3258C13.5322 21.4088 13.488 21.4847 13.4545 21.5413C13.3714 21.6773 13.2778 21.8539 13.1754 22.0393C12.9105 22.5321 12.5095 23.2757 12.1916 23.4523C12.0782 23.4967 11.9594 23.5258 11.8383 23.5389V23.4223C11.8383 23.3286 11.8011 23.2388 11.7349 23.1725C11.6686 23.1063 11.5788 23.0691 11.4851 23.0691H9.35325C9.25956 23.0691 9.16971 23.1063 9.10346 23.1725C9.03722 23.2388 9 23.3286 9 23.4223V29.0743C9 29.168 9.03722 29.2578 9.10346 29.3241C9.16971 29.3903 9.25956 29.4275 9.35325 29.4275H11.4727C11.5664 29.4275 11.6563 29.3903 11.7225 29.3241C11.7888 29.2578 11.826 29.168 11.826 29.0743V28.9842C12.3064 29.0813 14.4188 29.5017 15.2136 29.5706C15.3761 29.5847 15.6587 29.59 15.9731 29.59C16.6796 29.59 17.5627 29.5653 17.6104 29.5635C17.8178 29.5635 18.0217 29.5098 18.2022 29.4076C18.3827 29.3054 18.5336 29.1583 18.6403 28.9804C18.747 28.8026 18.8058 28.6001 18.8111 28.3928C18.8163 28.1854 18.7678 27.9803 18.6702 27.7973C18.8377 27.7352 18.9893 27.6365 19.1138 27.5083C19.2384 27.3802 19.3328 27.226 19.3901 27.0567C19.4475 26.8875 19.4664 26.7076 19.4454 26.5302C19.4244 26.3527 19.3641 26.1822 19.2689 26.031C19.4131 25.951 19.5392 25.842 19.6393 25.711C19.7395 25.58 19.8115 25.4297 19.851 25.2696C19.8904 25.1094 19.8964 24.9429 19.8686 24.7804C19.8408 24.6178 19.7797 24.4627 19.6893 24.3248C19.9269 24.1964 20.1144 23.9917 20.2213 23.7436C20.3282 23.4955 20.3484 23.2186 20.2786 22.9577C20.2087 22.6967 20.053 22.467 19.8364 22.3055C19.6199 22.1439 19.3553 22.0601 19.0852 22.0676ZM11.1195 28.7051H9.7065V23.7597H11.1195V28.7051ZM19.0852 23.7597H18.6843C18.5906 23.7597 18.5008 23.7969 18.4345 23.8631C18.3683 23.9294 18.331 24.0192 18.331 24.1129C18.331 24.2066 18.3683 24.2964 18.4345 24.3627C18.5008 24.4289 18.5906 24.4661 18.6843 24.4661C18.8155 24.4661 18.9412 24.5183 19.034 24.611C19.1267 24.7037 19.1788 24.8295 19.1788 24.9607C19.1788 25.0919 19.1267 25.2176 19.034 25.3104C18.9412 25.4031 18.8155 25.4552 18.6843 25.4552H18.2551C18.1614 25.4552 18.0716 25.4925 18.0053 25.5587C17.9391 25.625 17.9018 25.7148 17.9018 25.8085C17.9018 25.9022 17.9391 25.992 18.0053 26.0583C18.0716 26.1245 18.1614 26.1617 18.2551 26.1617C18.32 26.1617 18.3844 26.1745 18.4444 26.1994C18.5044 26.2242 18.5589 26.2607 18.6048 26.3066C18.6507 26.3525 18.6871 26.407 18.712 26.467C18.7369 26.527 18.7496 26.5913 18.7496 26.6563C18.7496 26.7212 18.7369 26.7855 18.712 26.8455C18.6871 26.9055 18.6507 26.9601 18.6048 27.006C18.5589 27.0519 18.5044 27.0883 18.4444 27.1132C18.3844 27.138 18.32 27.1508 18.2551 27.1508H17.6104C17.5167 27.1508 17.4269 27.188 17.3606 27.2543C17.2944 27.3205 17.2572 27.4104 17.2572 27.5041C17.2572 27.5978 17.2944 27.6876 17.3606 27.7539C17.4269 27.8201 17.5167 27.8573 17.6104 27.8573C17.6754 27.858 17.7395 27.8715 17.7993 27.897C17.859 27.9225 17.9131 27.9595 17.9586 28.0059C18.004 28.0523 18.0398 28.1072 18.0641 28.1675C18.0883 28.2278 18.1004 28.2922 18.0997 28.3572C18.099 28.4221 18.0855 28.4863 18.06 28.546C18.0345 28.6058 17.9975 28.6599 17.9511 28.7053C17.9047 28.7508 17.8497 28.7866 17.7895 28.8108C17.7292 28.835 17.6648 28.8471 17.5998 28.8464C17.5822 28.8464 15.7629 28.8976 15.2737 28.857C14.4347 28.7793 11.8984 28.2618 11.8719 28.2494H11.826V24.2365C12.0643 24.2159 12.2976 24.1562 12.5166 24.0599C13.02 23.7879 13.4439 23.0002 13.7865 22.3661C13.8819 22.1895 13.972 22.0128 14.0461 21.9033C14.085 21.8415 14.1327 21.7567 14.1839 21.6649C14.2635 21.5153 14.3513 21.3702 14.4471 21.2304C14.5114 21.1554 14.5798 21.0841 14.652 21.0167C14.7355 20.942 14.8151 20.863 14.8904 20.78C15.3055 20.2925 16.0614 19.1904 16.2575 18.1624C16.2575 18.1253 16.2716 18.0812 16.2804 18.0317C16.3034 17.8904 16.3617 17.5142 16.473 17.4383C16.4969 17.4293 16.5232 17.4293 16.5471 17.4383C16.7238 17.4736 16.9004 17.7915 16.8827 18.4115C16.9005 19.0319 16.7412 19.6445 16.4235 20.1777C16.3758 20.266 16.3281 20.3543 16.284 20.4444C16.0614 20.8983 15.9661 21.808 16.3794 22.2654C16.6373 22.5598 16.9996 22.7422 17.3896 22.7741H19.0852C19.2164 22.7741 19.3422 22.8262 19.4349 22.9189C19.5277 23.0117 19.5798 23.1375 19.5798 23.2686C19.5798 23.3998 19.5277 23.5256 19.4349 23.6183C19.3422 23.7111 19.2164 23.7632 19.0852 23.7632V23.7597Z" fill="white"/>
<path d="M31.2546 23.0531H29.1351C29.0414 23.0531 28.9516 23.0903 28.8853 23.1566C28.8191 23.2228 28.7818 23.3127 28.7818 23.4064V23.523C28.6608 23.5099 28.542 23.4808 28.4286 23.4364C28.1107 23.2598 27.7097 22.5215 27.4448 22.0234C27.3441 21.838 27.2487 21.6702 27.1657 21.5253C27.1304 21.4688 27.088 21.3929 27.0421 21.3099C26.9467 21.1264 26.8393 20.9494 26.7206 20.78C26.6323 20.6756 26.5367 20.5776 26.4345 20.4868C26.3656 20.4232 26.2879 20.349 26.2579 20.3102C25.7775 19.7467 25.1981 18.7894 25.0462 18.014C25.0462 17.984 25.0339 17.9469 25.0286 17.9045C24.9809 17.599 24.8996 17.0885 24.5411 16.8448C24.4515 16.7842 24.3503 16.7428 24.2439 16.7233C24.1375 16.7039 24.0282 16.7067 23.9229 16.7318C23.3454 16.8519 23.008 17.4771 23.0239 18.4079C23.0069 19.1451 23.1959 19.8724 23.5697 20.508C23.6138 20.5892 23.6562 20.6669 23.6968 20.7482C23.847 21.0537 23.854 21.6313 23.711 21.785C23.582 21.9377 23.4018 22.0382 23.2041 22.0676H21.5226C21.2586 22.0678 21.002 22.155 20.7925 22.3157C20.583 22.4764 20.4323 22.7017 20.3637 22.9567C20.2952 23.2117 20.3125 23.4821 20.4131 23.7263C20.5137 23.9704 20.692 24.1745 20.9203 24.3072C20.8299 24.4451 20.7688 24.6001 20.741 24.7627C20.7132 24.9252 20.7192 25.0918 20.7586 25.2519C20.7981 25.412 20.8701 25.5623 20.9703 25.6933C21.0704 25.8243 21.1965 25.9333 21.3407 26.0133C21.2454 26.1645 21.1852 26.3351 21.1642 26.5125C21.1432 26.6899 21.1621 26.8698 21.2195 27.039C21.2768 27.2083 21.3712 27.3625 21.4958 27.4907C21.6203 27.6188 21.7719 27.7175 21.9394 27.7796C21.8423 27.9617 21.7937 28.1657 21.7984 28.372C21.8031 28.5783 21.8608 28.78 21.9661 28.9575C22.0713 29.135 22.2206 29.2823 22.3993 29.3854C22.5781 29.4885 22.7805 29.5437 22.9868 29.5458C23.0398 29.5458 23.9211 29.5723 24.6347 29.5723C24.9509 29.5723 25.2317 29.5723 25.3942 29.5529C26.189 29.484 28.3014 29.0636 28.7818 28.9665V29.0566C28.7818 29.1503 28.8191 29.2401 28.8853 29.3064C28.9516 29.3726 29.0414 29.4098 29.1351 29.4098H31.2546C31.3483 29.4098 31.4381 29.3726 31.5044 29.3064C31.5706 29.2401 31.6078 29.1503 31.6078 29.0566V23.4046C31.6074 23.3112 31.5699 23.2218 31.5037 23.156C31.4375 23.0901 31.348 23.0531 31.2546 23.0531ZM28.7818 28.2494H28.7359C28.7112 28.2494 26.1731 28.7793 25.3324 28.8446C24.8431 28.887 23.0257 28.8358 22.9974 28.834C22.8662 28.834 22.7405 28.7819 22.6477 28.6892C22.555 28.5964 22.5029 28.4707 22.5029 28.3395C22.5029 28.2083 22.555 28.0825 22.6477 27.9898C22.7405 27.897 22.8662 27.8449 22.9974 27.8449C23.0911 27.8449 23.1809 27.8077 23.2472 27.7415C23.3134 27.6752 23.3507 27.5854 23.3507 27.4917C23.3507 27.398 23.3134 27.3082 23.2472 27.2419C23.1809 27.1757 23.0911 27.1384 22.9974 27.1384H22.3527C22.2216 27.1384 22.0958 27.0863 22.003 26.9936C21.9103 26.9008 21.8582 26.7751 21.8582 26.6439C21.8582 26.5127 21.9103 26.3869 22.003 26.2942C22.0958 26.2015 22.2216 26.1494 22.3527 26.1494C22.4464 26.1494 22.5363 26.1121 22.6025 26.0459C22.6688 25.9796 22.706 25.8898 22.706 25.7961C22.706 25.7024 22.6688 25.6126 22.6025 25.5463C22.5363 25.4801 22.4464 25.4429 22.3527 25.4429H21.9235C21.7924 25.4429 21.6666 25.3908 21.5738 25.298C21.4811 25.2053 21.429 25.0795 21.429 24.9483C21.429 24.8171 21.4811 24.6914 21.5738 24.5986C21.6666 24.5059 21.7924 24.4538 21.9235 24.4538C22.0172 24.4538 22.1071 24.4165 22.1733 24.3503C22.2396 24.284 22.2768 24.1942 22.2768 24.1005C22.2768 24.0068 22.2396 23.917 22.1733 23.8507C22.1071 23.7845 22.0172 23.7473 21.9235 23.7473H21.5226C21.3914 23.7473 21.2656 23.6952 21.1729 23.6024C21.0802 23.5097 21.028 23.3839 21.028 23.2527C21.028 23.1216 21.0802 22.9958 21.1729 22.903C21.2656 22.8103 21.3914 22.7582 21.5226 22.7582H23.2341C23.6156 22.724 23.9699 22.5459 24.2249 22.2601C24.6382 21.8026 24.5446 20.893 24.3203 20.4391C24.2762 20.349 24.2285 20.2625 24.1808 20.1724C23.8631 19.6392 23.7038 19.0266 23.7216 18.4062C23.711 17.788 23.8894 17.4683 24.0572 17.433C24.0811 17.424 24.1074 17.424 24.1313 17.433C24.2408 17.5089 24.308 17.8851 24.3239 18.0264C24.3239 18.0759 24.338 18.12 24.345 18.1571C24.5429 19.1921 25.2971 20.3013 25.7121 20.78C25.7894 20.8601 25.8707 20.9362 25.9559 21.0078C26.0303 21.0739 26.1011 21.1441 26.1678 21.218C26.2636 21.3578 26.3514 21.5029 26.431 21.6525C26.4822 21.7443 26.5317 21.8291 26.5687 21.8909C26.6412 22.0093 26.7312 22.1771 26.8266 22.3537C27.1675 22.986 27.5932 23.7667 28.0948 24.0458C28.3138 24.142 28.5471 24.2017 28.7854 24.2224L28.7818 28.2494ZM30.9013 28.7051H29.4883V23.7596H30.9013V28.7051ZM23.1299 14.826C23.1299 14.2671 22.9641 13.7207 22.6536 13.256C22.3431 12.7912 21.9017 12.429 21.3853 12.2151C20.869 12.0012 20.3008 11.9453 19.7526 12.0543C19.2044 12.1633 18.7008 12.4325 18.3056 12.8277C17.9104 13.2229 17.6412 13.7265 17.5322 14.2747C17.4232 14.8229 17.4791 15.3911 17.693 15.9074C17.9069 16.4238 18.2691 16.8652 18.7339 17.1757C19.1986 17.4862 19.745 17.652 20.3039 17.652C21.0534 17.652 21.7722 17.3542 22.3022 16.8243C22.8321 16.2943 23.1299 15.5755 23.1299 14.826ZM20.3039 16.9455C19.8847 16.9455 19.4749 16.8212 19.1264 16.5883C18.7778 16.3554 18.5062 16.0244 18.3457 15.6371C18.1853 15.2498 18.1433 14.8236 18.2251 14.4125C18.3069 14.0014 18.5088 13.6237 18.8052 13.3273C19.1016 13.0309 19.4793 12.829 19.8904 12.7472C20.3015 12.6654 20.7277 12.7074 21.115 12.8678C21.5023 13.0283 21.8333 13.2999 22.0662 13.6485C22.2991 13.997 22.4234 14.4068 22.4234 14.826C22.4234 15.3881 22.2001 15.9272 21.8026 16.3247C21.4051 16.7222 20.866 16.9455 20.3039 16.9455Z" fill="white"/>
<path d="M21.1147 13.8704L19.9507 15.0326L19.4933 14.5752C19.4604 14.5423 19.4215 14.5163 19.3786 14.4985C19.3357 14.4808 19.2898 14.4716 19.2433 14.4716C19.1969 14.4716 19.151 14.4808 19.1081 14.4985C19.0652 14.5163 19.0262 14.5423 18.9934 14.5752C18.9606 14.608 18.9346 14.6469 18.9168 14.6898C18.899 14.7327 18.8899 14.7787 18.8899 14.8251C18.8899 14.8715 18.899 14.9175 18.9168 14.9603C18.9346 15.0032 18.9606 15.0422 18.9934 15.075L19.6999 15.7815C19.7327 15.8143 19.7717 15.8404 19.8146 15.8582C19.8574 15.8759 19.9034 15.8851 19.9498 15.8851C19.9963 15.8851 20.0422 15.8759 20.0851 15.8582C20.128 15.8404 20.1669 15.8143 20.1998 15.7815L21.6127 14.3685C21.679 14.3022 21.7163 14.2123 21.7163 14.1186C21.7163 14.0248 21.679 13.9349 21.6127 13.8687C21.5465 13.8024 21.4566 13.7651 21.3628 13.7651C21.2691 13.7651 21.1792 13.8024 21.1129 13.8687L21.1147 13.8704Z" fill="white"/>
</svg>
