<svg width="42" height="42" viewBox="0 0 42 42" fill="none" xmlns="http://www.w3.org/2000/svg">
<circle cx="20.5638" cy="20.5638" r="20.5638" fill="#FF947A"/>
<path d="M21.0093 29.5171C16.3071 29.5171 12.4829 25.6928 12.4829 20.9907C12.4829 16.6667 15.7207 13.0922 19.8971 12.5451V11.0466C14.8932 11.6005 11 15.8385 11 20.9907C11 26.5187 15.4812 30.9999 21.0093 30.9999C26.1614 30.9999 30.4002 27.1067 30.9533 22.1028H29.4549C28.907 26.2785 25.3333 29.5171 21.0093 29.5171Z" fill="white"/>
<path d="M28.0528 20.62H22.0532C21.9982 20.4647 21.9092 20.3237 21.7928 20.2072C21.6763 20.0907 21.5353 20.0017 21.38 19.9468V13.9471H20.6385V19.9468C20.4617 20.0091 20.3035 20.1151 20.1788 20.2551C20.0541 20.3951 19.9669 20.5644 19.9254 20.7472C19.8839 20.9301 19.8893 21.1204 19.9413 21.3006C19.9933 21.4807 20.0901 21.6447 20.2227 21.7773C20.3553 21.9098 20.5193 22.0066 20.6994 22.0586C20.8795 22.1106 21.0699 22.1161 21.2527 22.0746C21.4355 22.033 21.6049 21.9458 21.7448 21.8211C21.8848 21.6964 21.9909 21.5383 22.0532 21.3614H28.0528V20.62Z" fill="white"/>
<path d="M21.3984 12.4829V20.6201H29.5356C29.444 18.4914 28.5573 16.4744 27.0507 14.9678C25.5441 13.4612 23.5271 12.5745 21.3984 12.4829Z" fill="#DE745A"/>
<path d="M24.944 13.4341L25.6884 12.1448C25.1398 11.8534 24.5615 11.6095 23.9565 11.4234L23.5724 12.8595C24.0499 13.01 24.5066 13.2057 24.944 13.4341ZM29.5172 20.62H31C30.9787 19.9941 30.8987 19.3715 30.7613 18.7605L29.3288 19.1446C29.4341 19.6221 29.4949 20.1159 29.5172 20.62ZM26.7613 14.7146L27.8126 13.6632C27.3541 13.237 26.8567 12.8548 26.3268 12.5214L25.5839 13.807C26.0035 14.0754 26.3958 14.3802 26.7613 14.7146ZM28.1915 16.4154L29.4779 15.6732C29.1445 15.1434 28.7622 14.646 28.3361 14.1874L27.2847 15.2387C27.6199 15.6035 27.9238 15.9957 28.1915 16.4154ZM22.8547 12.6712L23.238 11.2387C22.6275 11.1013 22.0054 11.0214 21.38 11V12.4829C21.8842 12.5044 22.3772 12.5652 22.8547 12.6712ZM29.1405 18.4276L30.5759 18.0436C30.3907 17.4444 30.1489 16.8642 29.8538 16.3108L28.5652 17.0552C28.7943 17.4927 28.99 17.9501 29.1405 18.4276Z" fill="white"/>
</svg>
