<svg width="20" height="20" viewBox="0 0 20 20" fill="none" xmlns="http://www.w3.org/2000/svg">
<path d="M12.0317 0C12.1869 4.76545e-06 12.338 0.0480055 12.4634 0.137089C12.5888 0.226173 12.682 0.351743 12.7295 0.495714L13.5357 2.93714C13.8743 3.09857 14.1983 3.28 14.5076 3.48429L17.0816 2.94429C17.2334 2.91271 17.3915 2.92889 17.5333 2.99051C17.675 3.05212 17.793 3.15599 17.8703 3.28714L19.902 6.71429C19.9795 6.84537 20.0124 6.99707 19.9958 7.14753C19.9792 7.29798 19.914 7.43941 19.8096 7.55143L18.0432 9.45143C18.069 9.81576 18.069 10.1814 18.0432 10.5457L19.8096 12.4486C19.914 12.5606 19.9792 12.702 19.9958 12.8525C20.0124 13.0029 19.9795 13.1546 19.902 13.2857L17.8703 16.7143C17.7928 16.8452 17.6747 16.9488 17.533 17.0101C17.3913 17.0715 17.2332 17.0874 17.0816 17.0557L14.5076 16.5157C14.1997 16.7186 13.8743 16.9014 13.5371 17.0629L12.7295 19.5043C12.682 19.6483 12.5888 19.7738 12.4634 19.8629C12.338 19.952 12.1869 20 12.0317 20H7.9683C7.81313 20 7.66196 19.952 7.53657 19.8629C7.41118 19.7738 7.31803 19.6483 7.27055 19.5043L6.46579 17.0643C6.12809 16.9033 5.80236 16.7195 5.49098 16.5143L2.91838 17.0557C2.76661 17.0873 2.60847 17.0711 2.46675 17.0095C2.32502 16.9479 2.20702 16.844 2.12974 16.7129L0.0980457 13.2857C0.0204638 13.1546 -0.0123975 13.0029 0.00420008 12.8525C0.0207977 12.702 0.0859965 12.5606 0.190395 12.4486L1.95677 10.5457C1.93117 10.1823 1.93117 9.81767 1.95677 9.45429L0.190395 7.55143C0.0859965 7.43941 0.0207977 7.29798 0.00420008 7.14753C-0.0123975 6.99707 0.0204638 6.84537 0.0980457 6.71429L2.12974 3.28571C2.20723 3.15482 2.32533 3.05125 2.46704 2.9899C2.60874 2.92855 2.76677 2.91258 2.91838 2.94429L5.49098 3.48571C5.80175 3.28143 6.12717 3.09714 6.46579 2.93571L7.27202 0.495714C7.31934 0.352207 7.41205 0.226969 7.53685 0.137929C7.66165 0.0488877 7.81217 0.000608096 7.96684 0H12.0302H12.0317ZM11.4952 1.42857H8.50481L7.6722 3.95286L7.11077 4.22C6.83477 4.35162 6.56833 4.50149 6.31334 4.66857L5.79442 5.01143L3.1324 4.45143L1.63721 6.97714L3.46222 8.94571L3.41824 9.55143C3.39717 9.85012 3.39717 10.1499 3.41824 10.4486L3.46222 11.0543L1.63428 13.0229L3.13093 15.5486L5.79295 14.99L6.31187 15.3314C6.56687 15.4985 6.8333 15.6484 7.1093 15.78L7.67073 16.0471L8.50481 18.5714H11.4981L12.3337 16.0457L12.8936 15.78C13.1693 15.6487 13.4353 15.4988 13.6896 15.3314L14.207 14.99L16.8705 15.5486L18.3657 13.0229L16.5392 11.0543L16.5832 10.4486C16.6044 10.1494 16.6044 9.84917 16.5832 9.55L16.5392 8.94429L18.3672 6.97714L16.8705 4.45143L14.207 5.00857L13.6896 4.66857C13.4353 4.50119 13.1693 4.3513 12.8936 4.22L12.3337 3.95429L11.4967 1.42857H11.4952ZM10 5.71429C11.1663 5.71429 12.2849 6.16582 13.1096 6.96954C13.9343 7.77327 14.3976 8.86336 14.3976 10C14.3976 11.1366 13.9343 12.2267 13.1096 13.0305C12.2849 13.8342 11.1663 14.2857 10 14.2857C8.83368 14.2857 7.71513 13.8342 6.89042 13.0305C6.06571 12.2267 5.60239 11.1366 5.60239 10C5.60239 8.86336 6.06571 7.77327 6.89042 6.96954C7.71513 6.16582 8.83368 5.71429 10 5.71429ZM10 7.14286C9.22245 7.14286 8.47675 7.44388 7.92695 7.97969C7.37714 8.51551 7.06826 9.24224 7.06826 10C7.06826 10.7578 7.37714 11.4845 7.92695 12.0203C8.47675 12.5561 9.22245 12.8571 10 12.8571C10.7775 12.8571 11.5232 12.5561 12.0731 12.0203C12.6229 11.4845 12.9317 10.7578 12.9317 10C12.9317 9.24224 12.6229 8.51551 12.0731 7.97969C11.5232 7.44388 10.7775 7.14286 10 7.14286Z" fill="currentColor"/>
</svg>
