<svg width="15" height="12" viewBox="0 0 15 12" fill="none" xmlns="http://www.w3.org/2000/svg">
<path d="M14.5248 6.36864C14.679 6.21439 14.7656 6.00521 14.7656 5.7871C14.7656 5.56899 14.679 5.35981 14.5248 5.20555L9.87162 0.552385C9.79575 0.473823 9.70498 0.411159 9.60463 0.36805C9.50427 0.324941 9.39634 0.302249 9.28712 0.3013C9.1779 0.300351 9.06959 0.321163 8.9685 0.362522C8.86741 0.403881 8.77557 0.464958 8.69834 0.542189C8.62111 0.619421 8.56003 0.71126 8.51867 0.812348C8.47732 0.913437 8.4565 1.02175 8.45745 1.13097C8.4584 1.24019 8.48109 1.34812 8.5242 1.44847C8.56731 1.54883 8.62997 1.63959 8.70854 1.71547L11.9576 4.96455L1.06457 4.96455C0.846417 4.96455 0.637198 5.05121 0.48294 5.20547C0.328682 5.35972 0.24202 5.56894 0.24202 5.7871C0.24202 6.00525 0.328682 6.21447 0.482939 6.36873C0.637198 6.52299 0.846417 6.60965 1.06457 6.60965L11.9576 6.60965L8.70854 9.85873C8.5587 10.0139 8.47579 10.2216 8.47767 10.4373C8.47954 10.653 8.56605 10.8593 8.71856 11.0118C8.87106 11.1643 9.07737 11.2508 9.29304 11.2527C9.50871 11.2546 9.71649 11.1716 9.87162 11.0218L14.5248 6.36864Z" fill="currentColor"/>
</svg>
