<svg width="36" height="37" viewBox="0 0 36 37" fill="none" xmlns="http://www.w3.org/2000/svg">
<g clip-path="url(#clip0_13005_1970)">
<path d="M18 23.7971C21.1066 23.7971 23.625 21.2787 23.625 18.1721C23.625 15.0655 21.1066 12.5471 18 12.5471C14.8934 12.5471 12.375 15.0655 12.375 18.1721C12.375 21.2787 14.8934 23.7971 18 23.7971Z" stroke="#748297" stroke-width="2.25" stroke-linecap="round" stroke-linejoin="round"/>
<path d="M5.82601 25.216C5.20441 24.1453 4.72819 22.9966 4.40991 21.8002L6.7696 18.8471C6.74288 18.3956 6.74288 17.9429 6.7696 17.4915L4.41132 14.5383C4.72905 13.3417 5.2043 12.1926 5.8246 11.1212L9.58069 10.6993C9.88064 10.3613 10.2004 10.0416 10.5384 9.74162L10.9602 5.98694C12.0302 5.36959 13.1774 4.89717 14.3718 4.58209L17.3249 6.94178C17.7764 6.91506 18.2291 6.91506 18.6805 6.94178L21.6337 4.5835C22.8303 4.90123 23.9794 5.37648 25.0509 5.99678L25.4727 9.75287C25.8107 10.0528 26.1304 10.3726 26.4304 10.7105L30.1851 11.1324C30.8067 12.2031 31.2829 13.3518 31.6012 14.5482L29.2415 17.5013C29.2682 17.9528 29.2682 18.4055 29.2415 18.8569L31.5998 21.8101C31.2843 23.0063 30.8114 24.1554 30.1935 25.2272L26.4374 25.6491C26.1375 25.9871 25.8177 26.3068 25.4798 26.6068L25.0579 30.3615C23.9872 30.9831 22.8385 31.4593 21.6421 31.7776L18.689 29.4179C18.2375 29.4446 17.7848 29.4446 17.3334 29.4179L14.3802 31.7762C13.184 31.4606 12.0349 30.9878 10.963 30.3699L10.5412 26.6138C10.2032 26.3139 9.88345 25.9941 9.58351 25.6562L5.82601 25.216Z" stroke="#748297" stroke-width="2.25" stroke-linecap="round" stroke-linejoin="round"/>
</g>
<defs>
<clipPath id="clip0_13005_1970">
<rect width="36" height="36" fill="white" transform="translate(0 0.172119)"/>
</clipPath>
</defs>
</svg>
