<svg xmlns="http://www.w3.org/2000/svg" width="118" height="144" viewBox="0 0 118 144" fill="none">
<g clip-path="url(#clip0_2003_2)">
<path d="M79.66 35.42C71.29 35.42 62.7699 35.08 54.7999 32.86C46.9799 30.69 39.7999 26.48 33.3999 21.61C29.2099 18.44 25.3999 15.92 19.9599 16.3C14.6335 16.5916 9.54234 18.5901 5.43995 22C-1.48005 28 -0.440053 39.23 2.32995 47.12C6.48995 59 19.1499 67.23 29.9099 72.61C42.3399 78.82 55.9999 82.42 69.6899 84.5C81.6899 86.32 97.1099 87.65 107.51 79.81C117.06 72.61 119.68 56.17 117.34 45.07C116.773 41.7879 115.027 38.8257 112.43 36.74C105.72 31.84 95.7099 35.11 88.1699 35.28C85.3699 35.34 82.52 35.41 79.66 35.42Z" fill="#F2F2F2"/>
<path d="M59.18 103.95C79.4543 103.95 95.89 102.925 95.89 101.66C95.89 100.395 79.4543 99.37 59.18 99.37C38.9056 99.37 22.47 100.395 22.47 101.66C22.47 102.925 38.9056 103.95 59.18 103.95Z" fill="#F2F2F2"/>
<path d="M6.54006 71.43C7.0813 71.43 7.52006 70.9912 7.52006 70.45C7.52006 69.9087 7.0813 69.47 6.54006 69.47C5.99882 69.47 5.56006 69.9087 5.56006 70.45C5.56006 70.9912 5.99882 71.43 6.54006 71.43Z" fill="#CFCFCF"/>
<path d="M48.78 83.86V88.17" stroke="#BABABA" stroke-linecap="round" stroke-linejoin="round"/>
<path d="M46.6299 86.02H50.9299" stroke="#BABABA" stroke-linecap="round" stroke-linejoin="round"/>
<path d="M100.41 16.08H17.9401C15.8083 16.08 14.0801 17.8081 14.0801 19.94V76.51C14.0801 78.6418 15.8083 80.37 17.9401 80.37H100.41C102.542 80.37 104.27 78.6418 104.27 76.51V19.94C104.27 17.8081 102.542 16.08 100.41 16.08Z" fill="white" stroke="#BABABA" stroke-linecap="round" stroke-linejoin="round"/>
<path d="M92.11 33.1801H26.23C24.7057 33.1801 23.47 34.4157 23.47 35.9401V71.8901C23.47 73.4144 24.7057 74.6501 26.23 74.6501H92.11C93.6343 74.6501 94.87 73.4144 94.87 71.8901V35.9401C94.87 34.4157 93.6343 33.1801 92.11 33.1801Z" fill="white" stroke="#BABABA" stroke-linecap="round" stroke-linejoin="round"/>
<path d="M104.27 26.91V20C104.271 19.4923 104.173 18.9892 103.979 18.5198C103.786 18.0503 103.502 17.6236 103.143 17.2641C102.785 16.9046 102.359 16.6194 101.89 16.4248C101.421 16.2302 100.918 16.13 100.41 16.13H17.9401C17.4323 16.13 16.9296 16.2302 16.4606 16.4248C15.9916 16.6194 15.5657 16.9046 15.2071 17.2641C14.8486 17.6236 14.5644 18.0503 14.371 18.5198C14.1776 18.9892 14.0788 19.4923 14.0801 20V27L104.27 26.91Z" fill="#D2D2D2"/>
<path d="M90.5501 10.42C91.0913 10.42 91.5301 9.9812 91.5301 9.43996C91.5301 8.89872 91.0913 8.45996 90.5501 8.45996C90.0088 8.45996 89.5701 8.89872 89.5701 9.43996C89.5701 9.9812 90.0088 10.42 90.5501 10.42Z" fill="#CFCFCF"/>
<path d="M29.3101 11.2799C29.8513 11.2799 30.2901 10.8412 30.2901 10.2999C30.2901 9.75871 29.8513 9.31995 29.3101 9.31995C28.7688 9.31995 28.3301 9.75871 28.3301 10.2999C28.3301 10.8412 28.7688 11.2799 29.3101 11.2799Z" fill="#CFCFCF"/>
<path d="M54.3899 3.81006V8.11006" stroke="#BABABA" stroke-linecap="round" stroke-linejoin="round"/>
<path d="M52.24 5.95996H56.54" stroke="#BABABA" stroke-linecap="round" stroke-linejoin="round"/>
<path d="M9.31006 -0.0699463V4.23005" stroke="#BABABA" stroke-linecap="round" stroke-linejoin="round"/>
<path d="M7.15991 2.07996H11.4699" stroke="#BABABA" stroke-linecap="round" stroke-linejoin="round"/>
<path d="M32.9083 134.32V141.55H32.2183C32.1116 141.55 32.0216 141.533 31.9483 141.5C31.8783 141.463 31.81 141.403 31.7433 141.32L27.9683 136.5C27.9883 136.72 27.9983 136.923 27.9983 137.11V141.55H26.8133V134.32H27.5183C27.575 134.32 27.6233 134.323 27.6633 134.33C27.7066 134.333 27.7433 134.343 27.7733 134.36C27.8066 134.373 27.8383 134.395 27.8683 134.425C27.8983 134.452 27.9316 134.488 27.9683 134.535L31.7583 139.375C31.7483 139.258 31.74 139.143 31.7333 139.03C31.7266 138.917 31.7233 138.812 31.7233 138.715V134.32H32.9083ZM36.4371 136.34C36.8171 136.34 37.1621 136.402 37.4721 136.525C37.7855 136.648 38.0521 136.823 38.2721 137.05C38.4955 137.277 38.6671 137.553 38.7871 137.88C38.9071 138.207 38.9671 138.572 38.9671 138.975C38.9671 139.382 38.9071 139.748 38.7871 140.075C38.6671 140.402 38.4955 140.68 38.2721 140.91C38.0521 141.14 37.7855 141.317 37.4721 141.44C37.1621 141.563 36.8171 141.625 36.4371 141.625C36.0538 141.625 35.7055 141.563 35.3921 141.44C35.0788 141.317 34.8105 141.14 34.5871 140.91C34.3671 140.68 34.1955 140.402 34.0721 140.075C33.9521 139.748 33.8921 139.382 33.8921 138.975C33.8921 138.572 33.9521 138.207 34.0721 137.88C34.1955 137.553 34.3671 137.277 34.5871 137.05C34.8105 136.823 35.0788 136.648 35.3921 136.525C35.7055 136.402 36.0538 136.34 36.4371 136.34ZM36.4371 140.675C36.8638 140.675 37.1788 140.532 37.3821 140.245C37.5888 139.958 37.6921 139.538 37.6921 138.985C37.6921 138.432 37.5888 138.01 37.3821 137.72C37.1788 137.43 36.8638 137.285 36.4371 137.285C36.0038 137.285 35.6821 137.432 35.4721 137.725C35.2655 138.015 35.1621 138.435 35.1621 138.985C35.1621 139.535 35.2655 139.955 35.4721 140.245C35.6821 140.532 36.0038 140.675 36.4371 140.675ZM48.956 137.935C48.956 138.465 48.8676 138.952 48.691 139.395C48.5143 139.838 48.266 140.22 47.946 140.54C47.626 140.86 47.241 141.108 46.791 141.285C46.341 141.462 45.841 141.55 45.291 141.55H42.536V134.32H45.291C45.841 134.32 46.341 134.41 46.791 134.59C47.241 134.767 47.626 135.015 47.946 135.335C48.266 135.652 48.5143 136.032 48.691 136.475C48.8676 136.918 48.956 137.405 48.956 137.935ZM47.576 137.935C47.576 137.538 47.5226 137.183 47.416 136.87C47.3126 136.553 47.161 136.287 46.961 136.07C46.7643 135.85 46.5243 135.682 46.241 135.565C45.961 135.448 45.6443 135.39 45.291 135.39H43.886V140.48H45.291C45.6443 140.48 45.961 140.422 46.241 140.305C46.5243 140.188 46.7643 140.022 46.961 139.805C47.161 139.585 47.3126 139.318 47.416 139.005C47.5226 138.688 47.576 138.332 47.576 137.935ZM52.5314 139.36C52.1748 139.377 51.8748 139.408 51.6314 139.455C51.3881 139.498 51.1931 139.555 51.0464 139.625C50.8998 139.695 50.7948 139.777 50.7314 139.87C50.6681 139.963 50.6364 140.065 50.6364 140.175C50.6364 140.392 50.6998 140.547 50.8264 140.64C50.9564 140.733 51.1248 140.78 51.3314 140.78C51.5848 140.78 51.8031 140.735 51.9864 140.645C52.1731 140.552 52.3548 140.412 52.5314 140.225V139.36ZM49.7014 137.135C50.2914 136.595 51.0014 136.325 51.8314 136.325C52.1314 136.325 52.3998 136.375 52.6364 136.475C52.8731 136.572 53.0731 136.708 53.2364 136.885C53.3998 137.058 53.5231 137.267 53.6064 137.51C53.6931 137.753 53.7364 138.02 53.7364 138.31V141.55H53.1764C53.0598 141.55 52.9698 141.533 52.9064 141.5C52.8431 141.463 52.7931 141.392 52.7564 141.285L52.6464 140.915C52.5164 141.032 52.3898 141.135 52.2664 141.225C52.1431 141.312 52.0148 141.385 51.8814 141.445C51.7481 141.505 51.6048 141.55 51.4514 141.58C51.3014 141.613 51.1348 141.63 50.9514 141.63C50.7348 141.63 50.5348 141.602 50.3514 141.545C50.1681 141.485 50.0098 141.397 49.8764 141.28C49.7431 141.163 49.6398 141.018 49.5664 140.845C49.4931 140.672 49.4564 140.47 49.4564 140.24C49.4564 140.11 49.4781 139.982 49.5214 139.855C49.5648 139.725 49.6348 139.602 49.7314 139.485C49.8314 139.368 49.9598 139.258 50.1164 139.155C50.2731 139.052 50.4648 138.962 50.6914 138.885C50.9214 138.808 51.1881 138.747 51.4914 138.7C51.7948 138.65 52.1414 138.62 52.5314 138.61V138.31C52.5314 137.967 52.4581 137.713 52.3114 137.55C52.1648 137.383 51.9531 137.3 51.6764 137.3C51.4764 137.3 51.3098 137.323 51.1764 137.37C51.0464 137.417 50.9314 137.47 50.8314 137.53C50.7314 137.587 50.6398 137.638 50.5564 137.685C50.4764 137.732 50.3864 137.755 50.2864 137.755C50.1998 137.755 50.1264 137.733 50.0664 137.69C50.0064 137.643 49.9581 137.59 49.9214 137.53L49.7014 137.135ZM56.5412 141.63C56.0945 141.63 55.7512 141.505 55.5112 141.255C55.2745 141.002 55.1562 140.653 55.1562 140.21V137.345H54.6312C54.5645 137.345 54.5079 137.323 54.4612 137.28C54.4145 137.237 54.3912 137.172 54.3912 137.085V136.595L55.2162 136.46L55.4762 135.06C55.4929 134.993 55.5245 134.942 55.5712 134.905C55.6179 134.868 55.6779 134.85 55.7512 134.85H56.3912V136.465H57.7612V137.345H56.3912V140.125C56.3912 140.285 56.4295 140.41 56.5062 140.5C56.5862 140.59 56.6945 140.635 56.8312 140.635C56.9079 140.635 56.9712 140.627 57.0212 140.61C57.0745 140.59 57.1195 140.57 57.1562 140.55C57.1962 140.53 57.2312 140.512 57.2612 140.495C57.2912 140.475 57.3212 140.465 57.3512 140.465C57.3879 140.465 57.4179 140.475 57.4412 140.495C57.4645 140.512 57.4895 140.538 57.5162 140.575L57.8862 141.175C57.7062 141.325 57.4995 141.438 57.2662 141.515C57.0329 141.592 56.7912 141.63 56.5412 141.63ZM61.2619 139.36C60.9052 139.377 60.6052 139.408 60.3619 139.455C60.1186 139.498 59.9236 139.555 59.7769 139.625C59.6302 139.695 59.5252 139.777 59.4619 139.87C59.3986 139.963 59.3669 140.065 59.3669 140.175C59.3669 140.392 59.4302 140.547 59.5569 140.64C59.6869 140.733 59.8552 140.78 60.0619 140.78C60.3152 140.78 60.5336 140.735 60.7169 140.645C60.9036 140.552 61.0852 140.412 61.2619 140.225V139.36ZM58.4319 137.135C59.0219 136.595 59.7319 136.325 60.5619 136.325C60.8619 136.325 61.1302 136.375 61.3669 136.475C61.6036 136.572 61.8036 136.708 61.9669 136.885C62.1302 137.058 62.2536 137.267 62.3369 137.51C62.4236 137.753 62.4669 138.02 62.4669 138.31V141.55H61.9069C61.7902 141.55 61.7002 141.533 61.6369 141.5C61.5736 141.463 61.5236 141.392 61.4869 141.285L61.3769 140.915C61.2469 141.032 61.1202 141.135 60.9969 141.225C60.8736 141.312 60.7452 141.385 60.6119 141.445C60.4786 141.505 60.3352 141.55 60.1819 141.58C60.0319 141.613 59.8652 141.63 59.6819 141.63C59.4652 141.63 59.2652 141.602 59.0819 141.545C58.8986 141.485 58.7402 141.397 58.6069 141.28C58.4736 141.163 58.3702 141.018 58.2969 140.845C58.2236 140.672 58.1869 140.47 58.1869 140.24C58.1869 140.11 58.2086 139.982 58.2519 139.855C58.2952 139.725 58.3652 139.602 58.4619 139.485C58.5619 139.368 58.6902 139.258 58.8469 139.155C59.0036 139.052 59.1952 138.962 59.4219 138.885C59.6519 138.808 59.9186 138.747 60.2219 138.7C60.5252 138.65 60.8719 138.62 61.2619 138.61V138.31C61.2619 137.967 61.1886 137.713 61.0419 137.55C60.8952 137.383 60.6836 137.3 60.4069 137.3C60.2069 137.3 60.0402 137.323 59.9069 137.37C59.7769 137.417 59.6619 137.47 59.5619 137.53C59.4619 137.587 59.3702 137.638 59.2869 137.685C59.2069 137.732 59.1169 137.755 59.0169 137.755C58.9302 137.755 58.8569 137.733 58.7969 137.69C58.7369 137.643 58.6886 137.59 58.6519 137.53L58.4319 137.135ZM67.6067 135.39V137.53H70.3167V138.605H67.6067V141.55H66.2567V134.32H70.8167V135.39H67.6067ZM73.5465 136.34C73.9265 136.34 74.2715 136.402 74.5815 136.525C74.8948 136.648 75.1615 136.823 75.3815 137.05C75.6048 137.277 75.7765 137.553 75.8965 137.88C76.0165 138.207 76.0765 138.572 76.0765 138.975C76.0765 139.382 76.0165 139.748 75.8965 140.075C75.7765 140.402 75.6048 140.68 75.3815 140.91C75.1615 141.14 74.8948 141.317 74.5815 141.44C74.2715 141.563 73.9265 141.625 73.5465 141.625C73.1632 141.625 72.8148 141.563 72.5015 141.44C72.1882 141.317 71.9198 141.14 71.6965 140.91C71.4765 140.68 71.3048 140.402 71.1815 140.075C71.0615 139.748 71.0015 139.382 71.0015 138.975C71.0015 138.572 71.0615 138.207 71.1815 137.88C71.3048 137.553 71.4765 137.277 71.6965 137.05C71.9198 136.823 72.1882 136.648 72.5015 136.525C72.8148 136.402 73.1632 136.34 73.5465 136.34ZM73.5465 140.675C73.9732 140.675 74.2882 140.532 74.4915 140.245C74.6982 139.958 74.8015 139.538 74.8015 138.985C74.8015 138.432 74.6982 138.01 74.4915 137.72C74.2882 137.43 73.9732 137.285 73.5465 137.285C73.1132 137.285 72.7915 137.432 72.5815 137.725C72.3748 138.015 72.2715 138.435 72.2715 138.985C72.2715 139.535 72.3748 139.955 72.5815 140.245C72.7915 140.532 73.1132 140.675 73.5465 140.675ZM81.4387 136.42V141.55H80.6837C80.5204 141.55 80.417 141.475 80.3737 141.325L80.2887 140.915C80.0787 141.128 79.847 141.302 79.5937 141.435C79.3404 141.565 79.042 141.63 78.6987 141.63C78.4187 141.63 78.1704 141.583 77.9537 141.49C77.7404 141.393 77.5604 141.258 77.4137 141.085C77.267 140.912 77.1554 140.707 77.0787 140.47C77.0054 140.23 76.9687 139.967 76.9687 139.68V136.42H78.2037V139.68C78.2037 139.993 78.2754 140.237 78.4187 140.41C78.5654 140.58 78.7837 140.665 79.0737 140.665C79.287 140.665 79.487 140.618 79.6737 140.525C79.8604 140.428 80.037 140.297 80.2037 140.13V136.42H81.4387ZM83.8182 137.05C83.9216 136.947 84.0299 136.852 84.1432 136.765C84.2599 136.675 84.3816 136.6 84.5082 136.54C84.6382 136.477 84.7766 136.428 84.9232 136.395C85.0699 136.358 85.2299 136.34 85.4032 136.34C85.6832 136.34 85.9316 136.388 86.1482 136.485C86.3649 136.578 86.5449 136.712 86.6882 136.885C86.8349 137.055 86.9449 137.26 87.0182 137.5C87.0949 137.737 87.1332 137.998 87.1332 138.285V141.55H85.8982V138.285C85.8982 137.972 85.8266 137.73 85.6832 137.56C85.5399 137.387 85.3216 137.3 85.0282 137.3C84.8149 137.3 84.6149 137.348 84.4282 137.445C84.2416 137.542 84.0649 137.673 83.8982 137.84V141.55H82.6632V136.42H83.4182C83.5782 136.42 83.6832 136.495 83.7332 136.645L83.8182 137.05ZM91.5278 137.73C91.3878 137.56 91.2344 137.44 91.0678 137.37C90.9044 137.3 90.7278 137.265 90.5378 137.265C90.3511 137.265 90.1828 137.3 90.0328 137.37C89.8828 137.44 89.7544 137.547 89.6478 137.69C89.5411 137.83 89.4594 138.01 89.4028 138.23C89.3461 138.447 89.3178 138.703 89.3178 139C89.3178 139.3 89.3411 139.555 89.3878 139.765C89.4378 139.972 89.5078 140.142 89.5978 140.275C89.6878 140.405 89.7978 140.5 89.9278 140.56C90.0578 140.617 90.2028 140.645 90.3628 140.645C90.6194 140.645 90.8378 140.592 91.0178 140.485C91.1978 140.378 91.3678 140.227 91.5278 140.03V137.73ZM92.7628 134.12V141.55H92.0078C91.8444 141.55 91.7411 141.475 91.6978 141.325L91.5928 140.83C91.3861 141.067 91.1478 141.258 90.8778 141.405C90.6111 141.552 90.2994 141.625 89.9428 141.625C89.6628 141.625 89.4061 141.567 89.1728 141.45C88.9394 141.333 88.7378 141.165 88.5678 140.945C88.4011 140.722 88.2711 140.447 88.1778 140.12C88.0878 139.793 88.0428 139.42 88.0428 139C88.0428 138.62 88.0944 138.267 88.1978 137.94C88.3011 137.613 88.4494 137.33 88.6428 137.09C88.8361 136.85 89.0678 136.663 89.3378 136.53C89.6078 136.393 89.9111 136.325 90.2478 136.325C90.5344 136.325 90.7794 136.37 90.9828 136.46C91.1861 136.55 91.3678 136.672 91.5278 136.825V134.12H92.7628Z" fill="#939090"/>
<path d="M46.6699 63.16C47.3064 60.3198 48.8912 57.781 51.1632 55.9617C53.4353 54.1424 56.2592 53.1511 59.1699 53.1511C62.0806 53.1511 64.9045 54.1424 67.1766 55.9617C69.4487 57.781 71.0335 60.3198 71.6699 63.16" stroke="#BABABA" stroke-linecap="round" stroke-linejoin="round"/>
<path d="M73.3 48.2401C74.2831 48.2401 75.08 47.4431 75.08 46.4601C75.08 45.477 74.2831 44.6801 73.3 44.6801C72.317 44.6801 71.52 45.477 71.52 46.4601C71.52 47.4431 72.317 48.2401 73.3 48.2401Z" fill="#BABABA"/>
<path d="M45.05 48.2401C46.0331 48.2401 46.83 47.4431 46.83 46.4601C46.83 45.477 46.0331 44.6801 45.05 44.6801C44.067 44.6801 43.27 45.477 43.27 46.4601C43.27 47.4431 44.067 48.2401 45.05 48.2401Z" fill="#BABABA"/>
</g>
<defs>
<clipPath id="clip0_2003_2">
<rect width="118" height="144" fill="white"/>
</clipPath>
</defs>
</svg>