<svg width="134" height="134" viewBox="0 0 134 134" fill="none" xmlns="http://www.w3.org/2000/svg">
<path opacity="0.2" d="M134 67C134 73.2454 129.507 77.9294 125.541 82.063C123.286 84.42 120.953 86.8487 120.074 88.9844C119.26 90.9405 119.212 94.1829 119.164 97.3235C119.075 103.162 118.979 109.778 114.379 114.379C109.778 118.979 103.162 119.075 97.3235 119.164C94.1829 119.212 90.9405 119.26 88.9844 120.074C86.8487 120.953 84.42 123.286 82.063 125.541C77.9294 129.507 73.2454 134 67 134C60.7546 134 56.0706 129.507 51.937 125.541C49.58 123.286 47.1512 120.953 45.0156 120.074C43.0595 119.26 39.8171 119.212 36.6765 119.164C30.8379 119.075 24.2217 118.979 19.6214 114.379C15.0212 109.778 14.9254 103.162 14.8357 97.3235C14.7879 94.1829 14.74 90.9405 13.9264 88.9844C13.0471 86.8487 10.714 84.42 8.45875 82.063C4.49259 77.9294 0 73.2454 0 67C0 60.7546 4.49259 56.0706 8.45875 51.937C10.714 49.58 13.0471 47.1512 13.9264 45.0156C14.74 43.0595 14.7879 39.8171 14.8357 36.6765C14.9254 30.8379 15.0212 24.2217 19.6214 19.6214C24.2217 15.0212 30.8379 14.9254 36.6765 14.8357C39.8171 14.7879 43.0595 14.74 45.0156 13.9264C47.1512 13.0471 49.58 10.714 51.937 8.45875C56.0706 4.49259 60.7546 0 67 0C73.2454 0 77.9294 4.49259 82.063 8.45875C84.42 10.714 86.8487 13.0471 88.9844 13.9264C90.9405 14.74 94.1829 14.7879 97.3235 14.8357C103.162 14.9254 109.778 15.0212 114.379 19.6214C118.979 24.2217 119.075 30.8379 119.164 36.6765C119.212 39.8171 119.26 43.0595 120.074 45.0156C120.953 47.1512 123.286 49.58 125.541 51.937C129.507 56.0706 134 60.7546 134 67Z" fill="#042D53"/>
<path d="M102.824 57.7823C101.444 56.34 100.016 54.8538 99.4779 53.5469C98.98 52.3498 98.9507 50.3657 98.9214 48.4438C98.8665 44.871 98.8079 40.8222 95.9929 38.0071C93.1778 35.1921 89.129 35.1335 85.5562 35.0786C83.6343 35.0493 81.6502 35.02 80.4531 34.5221C79.1499 33.984 77.66 32.5563 76.2177 31.1762C73.6918 28.7492 70.8218 26 67 26C63.1782 26 60.3119 28.7492 57.7823 31.1762C56.34 32.5563 54.8538 33.984 53.5469 34.5221C52.3571 35.02 50.3657 35.0493 48.4438 35.0786C44.871 35.1335 40.8222 35.1921 38.0071 38.0071C35.1921 40.8222 35.1518 44.871 35.0786 48.4438C35.0493 50.3657 35.02 52.3498 34.5221 53.5469C33.984 54.8501 32.5563 56.34 31.1762 57.7823C28.7492 60.3082 26 63.1782 26 67C26 70.8218 28.7492 73.6881 31.1762 76.2177C32.5563 77.66 33.984 79.1463 34.5221 80.4531C35.02 81.6502 35.0493 83.6343 35.0786 85.5562C35.1335 89.129 35.1921 93.1778 38.0071 95.9929C40.8222 98.8079 44.871 98.8665 48.4438 98.9214C50.3657 98.9507 52.3498 98.98 53.5469 99.4779C54.8501 100.016 56.34 101.444 57.7823 102.824C60.3082 105.251 63.1782 108 67 108C70.8218 108 73.6881 105.251 76.2177 102.824C77.66 101.444 79.1463 100.016 80.4531 99.4779C81.6502 98.98 83.6343 98.9507 85.5562 98.9214C89.129 98.8665 93.1778 98.8079 95.9929 95.9929C98.8079 93.1778 98.8665 89.129 98.9214 85.5562C98.9507 83.6343 98.98 81.6502 99.4779 80.4531C100.016 79.1499 101.444 77.66 102.824 76.2177C105.251 73.6918 108 70.8218 108 67C108 63.1782 105.251 60.3119 102.824 57.7823ZM83.7148 60.2863L63.2148 80.7863C62.9428 81.0585 62.6199 81.2746 62.2643 81.4219C61.9088 81.5693 61.5277 81.6452 61.1429 81.6452C60.758 81.6452 60.3769 81.5693 60.0214 81.4219C59.6659 81.2746 59.3429 81.0585 59.0709 80.7863L50.2852 72.0005C49.7357 71.451 49.4269 70.7057 49.4269 69.9286C49.4269 69.1514 49.7357 68.4061 50.2852 67.8566C50.8347 67.3071 51.58 66.9984 52.3571 66.9984C53.1343 66.9984 53.8796 67.3071 54.4291 67.8566L61.1429 74.574L79.5709 56.1423C79.843 55.8702 80.166 55.6544 80.5215 55.5071C80.877 55.3599 81.2581 55.2841 81.6429 55.2841C82.0277 55.2841 82.4087 55.3599 82.7642 55.5071C83.1197 55.6544 83.4427 55.8702 83.7148 56.1423C83.9869 56.4144 84.2028 56.7374 84.35 57.0929C84.4973 57.4485 84.5731 57.8295 84.5731 58.2143C84.5731 58.5991 84.4973 58.9801 84.35 59.3356C84.2028 59.6911 83.9869 60.0142 83.7148 60.2863Z" fill="#042D53"/>
</svg>
