 <svg
          xmlns="http://www.w3.org/2000/svg"
          width="60"
          height="60"
          viewBox="0 0 60 60"
          fill="none"
        >
          <rect
            width="60"
            height="60"
            rx="10"
            fill="url(#paint0_linear_141_3)"
          />
          <g filter="url(#filter0_d_141_3)">
            <path
              d="M29.5 18.25C23.3125 18.25 18.25 23.3125 18.25 29.5C18.25 35.6875 23.3125 40.75 29.5 40.75C35.6875 40.75 40.75 35.6875 40.75 29.5C40.75 23.3125 35.6875 18.25 29.5 18.25ZM29.5 38.5C24.55 38.5 20.5 34.45 20.5 29.5C20.5 24.55 24.55 20.5 29.5 20.5C34.45 20.5 38.5 24.55 38.5 29.5C38.5 34.45 34.45 38.5 29.5 38.5Z"
              fill="white"
            />
            <path
              d="M32.0875 26.4625L28.375 30.175L26.9125 28.7125C26.4625 28.2625 25.7875 28.2625 25.3375 28.7125C24.8875 29.1625 24.8875 29.8375 25.3375 30.2875L27.5875 32.5375C27.8125 32.7625 28.15 32.875 28.375 32.875C28.6 32.875 28.9375 32.7625 29.1625 32.5375L33.6625 28.0375C34.1125 27.5875 34.1125 26.9125 33.6625 26.4625C33.2125 26.0125 32.5375 26.0125 32.0875 26.4625Z"
              fill="white"
            />
          </g>
          <defs>
            <filter
              id="filter0_d_141_3"
              x="12"
              y="16"
              width="35"
              height="41"
              filterUnits="userSpaceOnUse"
              colorInterpolationFilters="sRGB"
            >
              <feFlood floodOpacity="0" result="BackgroundImageFix" />
              <feColorMatrix
                in="SourceAlpha"
                type="matrix"
                values="0 0 0 0 0 0 0 0 0 0 0 0 0 0 0 0 0 0 127 0"
                result="hardAlpha"
              />
              <feOffset dy="4" />
              <feGaussianBlur stdDeviation="2" />
              <feComposite in2="hardAlpha" operator="out" />
              <feColorMatrix
                type="matrix"
                values="0 0 0 0 0 0 0 0 0 0 0 0 0 0 0 0 0 0 0.25 0"
              />
              <feBlend
                mode="normal"
                in2="BackgroundImageFix"
                result="effect1_dropShadow_141_3"
              />
              <feBlend
                mode="normal"
                in="SourceGraphic"
                in2="effect1_dropShadow_141_3"
                result="shape"
              />
            </filter>
            <linearGradient
              id="paint0_linear_141_3"
              x1="30"
              y1="0"
              x2="30"
              y2="60"
              gradientUnits="userSpaceOnUse"
            >
              <stop stopColor="#89CF8D" />
              <stop offset="1" stopColor="#5AB75F" />
            </linearGradient>
          </defs>
        </svg>
