 <svg
          xmlns="http://www.w3.org/2000/svg"
          width="60"
          height="60"
          viewBox="0 0 60 60"
          fill="none"
        >
          <rect
            width="60"
            height="60"
            rx="10"
            fill="url(#paint0_linear_128_194)"
          />
          <path
            fillRule="evenodd"
            clipRule="evenodd"
            d="M31.5848 38.0338H29.4148C29.2288 38.0338 29.0893 37.9097 29.0583 37.7393L28.6708 35.3368C28.1438 35.1507 27.6633 34.8717 27.2293 34.4998L24.9508 35.3678C24.7803 35.4298 24.6098 35.3678 24.5168 35.2127L23.4318 33.3218C23.3388 33.1823 23.3698 32.9808 23.5093 32.8722L25.3848 31.3377C25.3073 30.7797 25.3073 30.2218 25.3848 29.6637L23.5093 28.1292C23.3698 28.0208 23.3388 27.8193 23.4318 27.6797L24.5168 25.7887C24.6098 25.6337 24.7803 25.5717 24.9508 25.6337L27.2293 26.5017C27.6633 26.1298 28.1438 25.8507 28.6708 25.6648L29.0583 23.2622C29.0893 23.0917 29.2288 22.9677 29.4148 22.9677H31.5848C31.7708 22.9677 31.9103 23.0917 31.9413 23.2622L32.3288 25.6648C32.8558 25.8507 33.3363 26.1298 33.7703 26.5017L36.0488 25.6337C36.2193 25.5717 36.3898 25.6337 36.4828 25.7887L37.5833 27.6797C37.6608 27.8193 37.6298 28.0208 37.4903 28.1292L35.6148 29.6637C35.6923 30.2218 35.6923 30.7797 35.6148 31.3377L37.4903 32.8722C37.6298 32.9808 37.6608 33.1667 37.5833 33.3218L36.4828 35.2127C36.3898 35.3678 36.2193 35.4298 36.0488 35.3678L33.7703 34.4998C33.3363 34.8562 32.8558 35.1507 32.3288 35.3368L31.9413 37.7393C31.9103 37.9097 31.7708 38.0338 31.5848 38.0338ZM30.4998 34.0502C28.5468 34.0502 26.9503 32.4537 26.9503 30.5007C26.9503 28.5477 28.5468 26.9513 30.4998 26.9513C32.4528 26.9513 34.0493 28.5477 34.0493 30.5007C34.0493 32.4537 32.4528 34.0502 30.4998 34.0502ZM30.4998 27.6642C28.9343 27.6642 27.6633 28.9353 27.6633 30.5007C27.6633 32.0662 28.9343 33.3372 30.4998 33.3372C32.0653 33.3372 33.3363 32.0662 33.3363 30.5007C33.3363 28.9353 32.0653 27.6642 30.4998 27.6642ZM24.4083 39.7852C24.3308 39.7852 24.2688 39.7542 24.2068 39.7232C21.1533 37.6307 19.3398 34.1898 19.3398 30.5007C19.3398 24.4713 24.1603 19.5267 30.1433 19.3407V17.6357C30.1433 17.3412 30.4688 17.1707 30.7013 17.3412L33.6308 19.4027C33.8323 19.5422 33.8323 19.8367 33.6308 19.9917L30.7013 22.0532C30.4688 22.2082 30.1433 22.0532 30.1433 21.7587V20.0537C24.5478 20.2397 20.0528 24.8587 20.0528 30.5007C20.0528 33.9573 21.7578 37.1812 24.6098 39.1342C24.8888 39.3202 24.7493 39.7852 24.4083 39.7852ZM30.8563 18.3177V21.0767L32.8093 19.6972L30.8563 18.3177ZM30.8563 40.9478C36.4518 40.7617 40.9468 36.1427 40.9468 30.5007C40.9468 27.0442 39.2418 23.8202 36.3898 21.8672C36.0178 21.6037 36.4053 21.0147 36.7928 21.2782C39.8463 23.3707 41.6598 26.8117 41.6598 30.5007C41.6598 36.5303 36.8393 41.4748 30.8563 41.6607V43.3657C30.8563 43.6602 30.5308 43.8307 30.2983 43.6602L27.3688 41.5987C27.1673 41.4592 27.1673 41.1647 27.3688 41.0098L30.2983 38.9482C30.5308 38.7932 30.8563 38.9482 30.8563 39.2428V40.9478ZM28.1903 41.3042L30.1433 42.6838V39.9247L28.1903 41.3042ZM29.7093 37.3363H31.2903L31.6623 35.0268C31.7398 34.5772 32.3598 34.8253 33.4758 33.8333C33.5688 33.7402 33.7083 33.7248 33.8323 33.7712L36.0178 34.5928L36.8083 33.2287L34.9948 31.7562C34.6538 31.4773 35.1653 30.9812 34.8708 29.5862C34.8398 29.4622 34.9018 29.3228 34.9948 29.2452L36.8083 27.7727L36.0178 26.4087L33.8323 27.2302C33.4138 27.4008 33.3053 26.7188 31.8948 26.2537C31.7708 26.2227 31.6778 26.1143 31.6623 25.9747L31.2903 23.6652H29.7093L29.3373 25.9747C29.2598 26.4242 28.6398 26.1762 27.5238 27.1683C27.4308 27.2612 27.2913 27.2767 27.1673 27.2302L24.9818 26.4087L24.1913 27.7727L26.0048 29.2452C26.3458 29.5243 25.8343 30.0202 26.1288 31.4152C26.1598 31.5392 26.1133 31.6788 26.0048 31.7562L24.1913 33.2287L24.9818 34.5928L27.1673 33.7712C27.5858 33.6007 27.6943 34.2827 29.1048 34.7477C29.2288 34.7787 29.3218 34.8872 29.3373 35.0268L29.7093 37.3363Z"
            fill="url(#paint1_linear_128_194)"
          />
          <defs>
            <linearGradient
              id="paint0_linear_128_194"
              x1="30"
              y1="0"
              x2="30"
              y2="60"
              gradientUnits="userSpaceOnUse"
            >
              <stop stopColor="#78B8F3" />
              <stop offset="1" stopColor="#3D9CF4" />
            </linearGradient>
            <linearGradient
              id="paint1_linear_128_194"
              x1="19.3378"
              y1="30.5007"
              x2="41.6619"
              y2="30.5007"
              gradientUnits="userSpaceOnUse"
            >
              <stop stopColor="white" />
              <stop offset="1" stopColor="white" />
            </linearGradient>
          </defs>
        </svg>