 <svg
          xmlns="http://www.w3.org/2000/svg"
          width="60"
          height="60"
          viewBox="0 0 60 60"
          fill="none"
        >
          <rect
            width="60"
            height="60"
            rx="10"
            fill="url(#paint0_linear_141_5)"
          />
          <g clipPath="url(#clip0_141_5)">
            <path
              d="M29.4991 16.5391C27.9482 16.5391 26.4319 16.8101 24.9911 17.3447L25.367 18.3572C26.6867 17.8675 28.0772 17.6191 29.4991 17.6191C36.0498 17.6191 41.3791 22.9483 41.3791 29.4991C41.3791 36.0498 36.0498 41.3791 29.4991 41.3791C22.9483 41.3791 17.6191 36.0498 17.6191 29.4991C17.6191 25.9378 19.2191 22.5898 21.9391 20.3417V24.0991H23.0191V18.6991H17.6191V19.7791H20.9271C18.1553 22.2253 16.5391 25.7558 16.5391 29.4991C16.5391 36.6449 22.3532 42.4591 29.4991 42.4591C36.6449 42.4591 42.4591 36.6449 42.4591 29.4991C42.4591 22.3532 36.6449 16.5391 29.4991 16.5391Z"
              fill="white"
            />
            <path
              d="M26.2597 33.8196H25.1797V34.8996H33.8197V33.8196H32.7397V31.976L30.2632 29.4996L32.7397 27.0232V25.1796H33.8197V24.0996H25.1797V25.1796H26.2597V27.0232L28.7361 29.4996L26.2597 31.976V33.8196ZM27.3397 26.576V25.1796H31.6597V26.576L29.4997 28.736L27.3397 26.576ZM29.4997 30.2632L31.6597 32.4232V33.8196H27.3397V32.4232L29.4997 30.2632Z"
              fill="white"
            />
            <path
              d="M27.3398 37.0586H26.2598V38.1386H27.3398V37.0586Z"
              fill="white"
            />
            <path
              d="M30.039 37.0586H28.959V38.1386H30.039V37.0586Z"
              fill="white"
            />
            <path
              d="M32.7382 37.0586H31.6582V38.1386H32.7382V37.0586Z"
              fill="white"
            />
          </g>
          <defs>
            <linearGradient
              id="paint0_linear_141_5"
              x1="30"
              y1="0"
              x2="30"
              y2="60"
              gradientUnits="userSpaceOnUse"
            >
              <stop stopColor="#FFBC58" />
              <stop offset="1" stopColor="#FBA21D" />
            </linearGradient>
            <clipPath id="clip0_141_5">
              <rect
                width="27"
                height="27"
                fill="white"
                transform="translate(16 16)"
              />
            </clipPath>
          </defs>
        </svg>