<svg
          xmlns="http://www.w3.org/2000/svg"
          width="60"
          height="60"
          viewBox="0 0 60 60"
          fill="none"
        >
          <rect
            width="60"
            height="60"
            rx="10"
            fill="url(#paint0_linear_141_4)"
          />
          <path
            d="M30.4668 17.9004V22.7338H35.3002L30.4668 17.9004Z"
            fill="white"
          />
          <path
            d="M29.017 24.1838V17.9004H17.9004V41.1004H28.0504V33.367H19.8338V31.917H28.546C28.9868 31.3335 29.6808 30.9504 30.467 30.9504H30.9504V30.467C30.9504 29.1341 32.0341 28.0504 33.367 28.0504H35.3004V24.1838H29.017ZM26.117 39.167H19.8338V37.717H26.1173L26.117 39.167ZM26.117 34.817V36.267H19.8338V34.817H26.117ZM22.7338 19.8338C23.5345 19.8338 24.1838 20.4834 24.1838 21.2838C24.1838 22.0845 23.5345 22.7338 22.7338 22.7338C21.9334 22.7338 21.2838 22.0845 21.2838 21.2838C21.2838 20.4831 21.9331 19.8338 22.7338 19.8338ZM19.8338 24.667C19.8338 24.1366 20.268 23.7004 20.8004 23.7004H21.1365C21.5953 24.0043 22.1428 24.1838 22.7338 24.1838C23.3248 24.1838 23.8724 24.0046 24.3311 23.7004H24.6673C25.1977 23.7004 25.6338 24.1366 25.6338 24.667V26.6004H19.8338V24.667ZM27.567 30.467H19.8338V29.017H27.5673L27.567 30.467Z"
            fill="white"
          />
          <path
            d="M36.025 37.1893V38.6828H34.575V37.1893C32.7663 37.1026 31.0074 36.6853 29.5 35.9414V40.1328C29.5 40.6641 29.9353 41.0993 30.4666 41.0993H40.1334C40.6647 41.0993 41.1 40.6641 41.1 40.1328V35.9414C39.5914 36.685 37.8337 37.1026 36.025 37.1893Z"
            fill="white"
          />
          <path
            d="M41.1 34.3294V33.3666C41.1 32.8353 40.6647 32.4 40.1334 32.4H38.2V30.4666C38.2 29.9353 37.7647 29.5 37.2334 29.5H33.3666C32.8353 29.5 32.4 29.9353 32.4 30.4666V32.4H30.4666C29.9353 32.4 29.5 32.8353 29.5 33.3666V34.3294C32.703 36.2628 37.8961 36.2628 41.1 34.3294ZM33.85 30.95H36.75V32.4H33.85V30.95Z"
            fill="white"
          />
          <defs>
            <linearGradient
              id="paint0_linear_141_4"
              x1="30"
              y1="0"
              x2="30"
              y2="60"
              gradientUnits="userSpaceOnUse"
            >
              <stop stopColor="#9C69EB" />
              <stop offset="1" stopColor="#8C4BF1" />
            </linearGradient>
          </defs>
        </svg>